<?xml version="1.0" encoding="UTF-8" standalone="no"?>
<svg
   xmlns:dc="http://purl.org/dc/elements/1.1/"
   xmlns:cc="http://creativecommons.org/ns#"
   xmlns:rdf="http://www.w3.org/1999/02/22-rdf-syntax-ns#"
   xmlns:svg="http://www.w3.org/2000/svg"
   xmlns="http://www.w3.org/2000/svg"
   viewBox="0 0 384 122.66667"
   height="122.66667"
   width="384"
   xml:space="preserve"
   id="svg2"
   version="1.1"><metadata
     id="metadata8"><rdf:RDF><cc:Work
         rdf:about=""><dc:format>image/svg+xml</dc:format><dc:type
           rdf:resource="http://purl.org/dc/dcmitype/StillImage" /></cc:Work></rdf:RDF></metadata><defs
     id="defs6" /><g
     transform="matrix(1.3333333,0,0,-1.3333333,0,122.66667)"
     id="g10"><g
       transform="scale(0.1)"
       id="g12"><path
         id="path14"
         style="fill:#454547;fill-opacity:1;fill-rule:nonzero;stroke:none"
         d="m 643.266,338.234 h -92.504 v 342.532 h 92.504 V 338.234" /><path
         id="path16"
         style="fill:#454547;fill-opacity:1;fill-rule:nonzero;stroke:none"
         d="m 2342.7,428.504 v -89.789 h -365.91 c -15.6,0 -29.82,2.387 -42.65,7.152 -12.89,4.789 -24.05,11.653 -33.46,20.61 -9.45,8.953 -16.77,19.836 -21.99,32.648 -5.27,12.813 -7.88,27.223 -7.88,43.266 v 140.265 c 1.2,13.867 4.56,26.762 10.1,38.641 5.55,11.879 12.95,22.203 22.24,30.992 9.26,8.813 20.13,15.758 32.55,20.856 12.39,5.078 26.26,7.628 41.52,7.628 h 364.61 V 593.27 h -365.04 c -5.11,0 -9,-0.602 -11.7,-1.825 -2.67,-1.246 -4.73,-2.945 -6.05,-5.101 -1.35,-2.176 -2.11,-4.539 -2.26,-7.172 -0.15,-2.633 -0.19,-5.328 -0.19,-8.082 V 457.191 c 0,-8.332 1.1,-15.171 3.36,-20.586 2.24,-5.41 7.69,-8.101 16.38,-8.101 h 366.37" /><path
         id="path18"
         style="fill:#454547;fill-opacity:1;fill-rule:nonzero;stroke:none"
         d="m 1076.1,564.145 c 0,3.668 -0.16,7.238 -0.45,10.636 -0.31,3.399 -1.08,6.387 -2.26,9.02 -1.19,2.629 -3.05,4.785 -5.6,6.465 -2.55,1.703 -6.05,2.55 -10.55,2.55 h -256.4 c -5.098,0 -8.957,-0.601 -11.652,-1.824 -2.715,-1.246 -4.727,-2.945 -6.071,-5.101 -1.328,-2.176 -2.094,-4.559 -2.242,-7.172 -0.145,-2.633 -0.227,-5.328 -0.227,-8.106 V 456.738 c 0,-8.332 1.141,-15.215 3.36,-20.605 2.277,-5.367 7.687,-8.082 16.418,-8.082 h 255.924 c 4.77,0 8.5,0.703 11.21,2.09 2.7,1.371 4.73,3.152 6.05,5.308 1.37,2.156 2.1,4.684 2.26,7.629 0.15,2.942 0.23,5.949 0.23,9.039 z m 86.66,-122.227 c 0,-16.648 -2.55,-31.387 -7.65,-44.199 -5.08,-12.813 -12.19,-23.614 -21.31,-32.403 -9.15,-8.789 -20.24,-15.484 -33.23,-20.128 -13.05,-4.645 -27.47,-6.965 -43.33,-6.965 h -256.4 c -15.547,0 -29.77,2.406 -42.645,7.195 -12.871,4.766 -24.004,11.648 -33.457,20.605 -9.414,8.934 -16.769,19.817 -21.996,32.629 -5.222,12.789 -7.836,27.219 -7.836,43.266 v 140.266 c 1.184,13.886 4.559,26.843 10.098,38.886 5.516,12.028 12.914,22.453 22.199,31.243 9.309,8.789 20.152,15.734 32.57,20.816 12.418,5.098 26.247,7.629 41.543,7.629 h 255.924 c 17.33,0 32.61,-2.676 45.79,-8.086 13.17,-5.391 24.17,-12.895 33.01,-22.453 8.81,-9.555 15.48,-20.981 19.98,-34.246 4.5,-13.289 6.74,-27.926 6.74,-43.969 V 441.918" /><path
         id="path20"
         style="fill:#454547;fill-opacity:1;fill-rule:nonzero;stroke:none"
         d="m 1213.93,604.402 c 0,11.422 2.32,22.059 6.94,31.926 4.65,9.891 10.86,18.43 18.64,25.707 7.79,7.235 16.77,12.957 26.95,17.102 10.16,4.187 20.65,6.261 31.43,6.261 24.25,0 46.99,-10.8 68.26,-32.382 l 225.82,-224.055 v 251.816 h 84.42 V 428.961 c 0,-13.578 -2.24,-26.164 -6.72,-37.731 -4.5,-11.546 -10.63,-21.519 -18.41,-29.851 -7.79,-8.316 -16.77,-14.887 -26.95,-19.652 -10.16,-4.789 -20.96,-7.196 -32.34,-7.196 -6.26,0 -12.17,0.766 -17.72,2.321 -5.54,1.535 -11.67,4.336 -18.41,8.316 -6.74,4.02 -14.53,9.637 -23.32,16.914 -8.85,7.234 -19.55,16.563 -32.13,27.984 L 1297.89,593.77 V 338.242 h -83.96 v 266.16" /><path
         id="path22"
         style="fill:#454547;fill-opacity:1;fill-rule:nonzero;stroke:none"
         d="m 1820.09,338.234 h -92.51 v 342.532 h 92.51 V 338.234" /></g></g></svg>