<?xml version="1.0" encoding="UTF-8"?>
<svg width="256px" height="256px" viewBox="0 0 256 256" version="1.1" xmlns="http://www.w3.org/2000/svg" xmlns:xlink="http://www.w3.org/1999/xlink">
    <!-- Generator: Sketch 55.2 (78181) - https://sketchapp.com -->
    <title>RRD-logo-on-dark</title>
    <desc>Created with Sketch.</desc>
    <g id="RRD-logo-on-dark" stroke="none" stroke-width="1" fill="none" fill-rule="evenodd">
        <g id="Framed" transform="translate(0.000000, -0.271062)" fill="#FFFFFF" fill-rule="nonzero">
            <g id="Just-&quot;rrd&quot;" transform="translate(38.000000, 69.047619)">
                <path d="M179.340659,0 C179.604396,0 179.802198,0.197191011 179.802198,0.525842697 L179.802198,113.450562 C179.802198,113.713483 179.604396,113.910674 179.340659,113.910674 L161.934066,113.910674 C161.67033,113.910674 161.472527,113.713483 161.472527,113.450562 L161.472527,104.839888 C153.89011,110.558427 144.395604,113.910674 134.10989,113.910674 C133.912088,113.910674 133.714286,113.910674 133.516484,113.910674 C122.835165,113.910674 114.857143,110.361236 110.835165,108.060674 C109.846154,107.666292 108.857143,106.943258 107.736264,106.088764 C107.406593,105.760112 107.208791,105.23427 107.340659,104.839888 L111.824176,87.4870787 C111.956044,87.0926966 112.549451,86.8955056 112.879121,87.2241573 C114,88.2758427 114.989011,89.1303371 116.043956,89.9191011 C118.153846,91.3651685 119.736264,92.2196629 120.263736,92.4825843 C120.395604,92.5483146 120.461538,92.5483146 120.461538,92.5483146 C122.241758,93.402809 124.021978,94.1258427 125.604396,94.5859551 C125.934066,94.6516854 126.263736,94.7831461 126.593407,94.8488764 L126.659341,94.8488764 C126.989011,94.9146067 127.318681,94.9803371 127.582418,95.0460674 C127.648352,95.0460674 127.648352,95.0460674 127.714286,95.0460674 C129.824176,95.4404494 132,95.5061798 134.241758,95.5061798 C149.340659,95.5061798 161.604396,83.3460674 161.604396,68.2280899 L161.604396,0.46011236 C161.604396,0.197191011 161.802198,0 162.065934,0 L179.340659,0 Z M69.032967,28.5926966 C70.021978,29.1185393 71.1428571,29.7758427 72.2637363,30.4331461 C72.5934066,30.7617978 72.7912088,31.2876404 72.6593407,31.6820225 L68.1758242,49.0348315 C68.043956,49.4292135 67.4505495,49.6264045 67.1208791,49.2977528 C66,48.2460674 65.010989,47.391573 63.956044,46.602809 C61.8461538,45.1567416 60.2637363,44.3022472 59.7362637,44.0393258 C59.6043956,43.9735955 59.5384615,43.9735955 59.5384615,43.9735955 C57.7582418,43.1191011 55.978022,42.3960674 54.3956044,41.9359551 C54.0659341,41.8702247 53.7362637,41.738764 53.4065934,41.6730337 L53.3406593,41.6730337 C53.010989,41.6073034 52.6813187,41.541573 52.4175824,41.4758427 C52.3516484,41.4758427 52.3516484,41.4758427 52.2857143,41.4758427 C50.1758242,41.0814607 48,41.0157303 45.7582418,41.0157303 C30.6593407,41.0157303 18.3956044,53.1758427 18.3956044,68.2938202 L18.3956044,113.319101 C18.3956044,113.582022 18.1978022,113.779213 17.9340659,113.779213 L0.659340659,113.779213 C0.395604396,113.779213 0.197802198,113.582022 0.197802198,113.319101 L0.197802198,23.2685393 C0.197802198,23.005618 0.395604396,22.7426966 0.725274725,22.808427 L18,22.808427 C18.2637363,22.808427 18.4615385,23.005618 18.4615385,23.2685393 L18.4615385,31.8134831 C26.043956,26.0949438 35.5384615,22.7426966 45.8241758,22.7426966 C46.021978,22.7426966 46.2197802,22.7426966 46.4175824,22.7426966 C57.0989011,22.7426966 65.0769231,26.2921348 69.032967,28.5926966 Z M127.318681,41.0157303 C112.21978,41.0157303 99.956044,53.1758427 100.021978,68.2938202 L100.021978,113.319101 C100.021978,113.582022 99.8241758,113.779213 99.5604396,113.779213 L82.4175824,113.779213 C82.1538462,113.779213 81.956044,113.582022 81.956044,113.319101 L81.956044,23.2685393 C81.956044,23.005618 82.1538462,22.808427 82.4175824,22.808427 L99.6923077,22.808427 C99.956044,22.808427 100.153846,23.005618 100.153846,23.2685393 L100.153846,31.8134831 C107.736264,26.0949438 117.230769,22.7426966 127.516484,22.7426966 C127.714286,22.7426966 127.912088,22.7426966 128.10989,22.7426966 C138.791209,22.7426966 146.769231,26.3578652 150.725275,28.461236 C151.714286,28.855618 152.703297,29.5786517 153.824176,30.4331461 C154.153846,30.7617978 154.351648,31.2876404 154.21978,31.6820225 L149.736264,49.0348315 C149.604396,49.4292135 149.010989,49.6264045 148.681319,49.2977528 C147.56044,48.2460674 146.571429,47.391573 145.516484,46.602809 C143.406593,45.1567416 141.824176,44.3022472 141.296703,44.0393258 C141.164835,43.9735955 141.098901,43.9735955 141.098901,43.9735955 C139.318681,43.1191011 137.538462,42.3960674 135.956044,41.9359551 C135.626374,41.8702247 135.296703,41.738764 134.967033,41.6730337 L134.901099,41.6730337 C134.571429,41.6073034 134.241758,41.541573 133.978022,41.4758427 C133.912088,41.4758427 133.912088,41.4758427 133.846154,41.4758427 C131.736264,41.0814607 129.56044,41.0157303 127.318681,41.0157303 Z" id="Combined-Shape"></path>
            </g>
        </g>
    </g>
</svg>