<?xml version="1.0" encoding="UTF-8"?>
<svg width="17px" height="30px" viewBox="0 0 17 30" version="1.1" xmlns="http://www.w3.org/2000/svg" xmlns:xlink="http://www.w3.org/1999/xlink">
    <!-- Generator: Sketch 52.6 (67491) - http://www.bohemiancoding.com/sketch -->
    <title>CSU_Logo_Tower_WhiteBackground</title>
    <desc>Created with Sketch.</desc>
    <g id="CSU_Logo_Tower_WhiteBackground" stroke="none" stroke-width="1" fill="none" fill-rule="evenodd">
        <path d="M15.4235,28.3755 C15.5065,28.3755 15.5615,28.3615 15.5615,28.2715 C15.5615,28.1895 15.4735,28.1805 15.4065,28.1805 L15.2845,28.1805 L15.2845,28.3755 L15.4235,28.3755 Z M15.1135,28.0495 L15.4135,28.0495 C15.6165,28.0495 15.7315,28.1095 15.7315,28.2855 C15.7315,28.4305 15.6445,28.4895 15.5215,28.4985 L15.7315,28.8465 L15.5565,28.8465 L15.3645,28.5085 L15.2845,28.5085 L15.2845,28.8465 L15.1135,28.8465 L15.1135,28.0495 Z M15.4025,29.0085 C15.6865,29.0085 15.9115,28.7815 15.9115,28.4495 C15.9115,28.1195 15.6865,27.8925 15.4025,27.8925 C15.1135,27.8925 14.8905,28.1195 14.8905,28.4495 C14.8905,28.7815 15.1135,29.0085 15.4025,29.0085 Z M15.4025,27.7325 C15.7975,27.7325 16.1195,28.0555 16.1195,28.4495 C16.1195,28.8465 15.7975,29.1675 15.4025,29.1675 C15.0075,29.1675 14.6855,28.8465 14.6855,28.4495 C14.6855,28.0555 15.0075,27.7325 15.4025,27.7325 Z" id="Fill-447" fill="#003767"></path>
        <path d="M16.2386,8.7155 C15.0276,7.7155 13.3396,6.9795 11.3916,6.6035 L11.3916,6.3795 L12.3676,6.3795 L12.1076,2.1015 L9.7946,2.1015 L8.4146,0.0005 L7.0316,2.1015 L4.7186,2.1015 L4.4576,6.3795 L4.8426,6.3795 L4.8426,6.7305 C3.1496,7.1355 1.6836,7.8195 0.5976,8.7155 L0.3966,8.8805 L0.3966,26.2825 C0.3966,26.2825 2.9936,28.8455 8.4176,28.8455 C13.8426,28.8455 16.4376,26.2825 16.4376,26.2825 L16.4376,8.8805 L16.2386,8.7155 Z" id="Fill-449" fill="#FFFFFF"></path>
        <path d="M5.131,14.4258 L5.131,22.5578 C4.982,22.5848 4.826,22.6108 4.671,22.6358 L4.671,11.9138 L5.398,11.9138 L5.398,13.6978 L5.398,13.6998 L5.131,14.4258 Z M4.671,11.2028 L5.396,11.2028 L5.398,11.4668 L4.671,11.4668 L4.671,11.2028 Z M15.886,19.9828 L15.886,9.1408 C14.789,8.2328 13.218,7.5338 11.389,7.1648 L11.389,11.2028 L12.156,11.2028 L12.156,11.4668 L11.389,11.4668 L11.389,11.9138 L12.156,11.9138 L12.156,21.0798 C11.284,21.3568 9.555,21.7918 6.167,22.3818 L6.167,11.9118 L10.661,11.9118 L10.661,11.4648 L6.167,11.4648 L6.167,5.8258 L6.167,5.8238 L6.168,5.8238 L6.172,5.8188 L8.389,2.7018 L10.659,5.8968 L10.659,10.2448 L11.389,10.2448 L11.059,9.8038 L11.059,5.8258 L11.783,5.8258 L11.588,2.6548 L9.941,2.6548 L10.74,4.5458 L8.415,1.0068 L7.331,2.6548 L5.239,2.6548 L5.047,5.8258 L5.396,5.8258 L5.396,7.1728 C3.586,7.5448 2.037,8.2408 0.95,9.1408 L0.95,24.8488 C8.607,23.3138 14.235,21.7588 13.233,21.1828 C12.266,20.6288 14.239,20.1598 15.886,19.9828 Z M9.78,19.0268 L10,19.3268 L10,13.2678 L9.543,13.2678 L9.543,19.0268 L9.78,19.0268 Z M7.954,19.0268 L8.173,19.3268 L8.173,13.2678 L7.715,13.2678 L7.715,19.0268 L7.954,19.0268 Z M8.868,19.0268 L9.086,19.3268 L9.086,13.2678 L8.63,13.2678 L8.63,19.0268 L8.868,19.0268 Z M7.04,19.0268 L7.258,19.3268 L7.258,13.2678 L6.801,13.2678 L6.801,19.0268 L7.04,19.0268 Z M6.488,7.4638 C6.488,8.3758 7.236,9.1158 8.158,9.1158 C8.549,9.1158 8.91,8.9818 9.197,8.7588 C8.985,8.8468 8.75,8.8938 8.506,8.8958 C7.514,8.8928 6.71,8.1008 6.71,7.1168 C6.71,6.8788 6.758,6.6548 6.844,6.4478 C6.621,6.7288 6.488,7.0798 6.488,7.4638 Z M9.322,8.4128 C9.597,8.1418 9.768,7.7698 9.768,7.3568 C9.768,6.5388 9.093,5.8728 8.265,5.8728 L8.264,5.8728 L8.592,6.9238 C8.677,6.9568 8.738,7.0378 8.738,7.1338 C8.738,7.2578 8.637,7.3578 8.513,7.3578 C8.48,7.3578 8.451,7.3508 8.424,7.3388 L7.729,7.6848 L8.289,7.1358 C8.289,7.1338 8.288,7.1338 8.288,7.1338 C8.288,7.0908 8.304,7.0518 8.326,7.0158 L8.217,5.8748 C7.815,5.8878 7.451,6.0548 7.189,6.3218 C7.458,5.8838 7.946,5.5908 8.506,5.5908 C9.358,5.5908 10.047,6.2748 10.049,7.1168 C10.047,7.6638 9.76,8.1418 9.322,8.4128 Z" id="Fill-451" fill="#003767"></path>
        <path d="M14.5449,20.9647 C16.2419,21.9787 11.2629,25.0437 3.5849,27.4787 C4.9869,27.9937 6.6429,28.2917 8.4169,28.2917 C11.5039,28.2917 14.2299,27.3957 15.8859,26.0237 L15.8859,20.3927 C14.9269,20.4647 13.9859,20.6297 14.5449,20.9647" id="Fill-453" fill="#E21836"></path>
    </g>
</svg>