<?xml version="1.0" encoding="UTF-8"?>
<svg width="74px" height="92px" viewBox="0 0 74 92" version="1.1" xmlns="http://www.w3.org/2000/svg" xmlns:xlink="http://www.w3.org/1999/xlink">
    <title>Dunkin</title>
    <g id="Dunkin" stroke="none" stroke-width="1" fill="none" fill-rule="evenodd">
        <g>
            <path d="M19.067064,2.414048 C21.960416,0.295701 25.577106,-0.065968 27.282117,0.192367 C30.84714,0.812371 33.637158,3.292387 34.515497,6.85741 C34.670498,7.580748 34.773832,8.304086 34.773832,9.027424 C34.773832,11.817442 33.482157,14.452459 31.208809,16.15747 L31.208809,16.15747 L31.157142,16.209137 L31.105475,16.209137 L29.762133,16.67414 L30.795473,16.415805 C29.142129,17.345811 27.385451,17.604146 25.835441,17.294144 C26.300444,18.172483 26.71378,19.102489 26.920448,20.187496 C26.921238,20.1918479 26.9220179,20.1961982 26.9227877,20.200547 L54.98028,20.2 C60.7792699,20.2 65.48028,24.9010101 65.48028,30.7 L65.48028,81.5 C65.48028,87.2989899 60.7792699,92 54.98028,92 L11.38028,92 C5.58129013,92 0.88028,87.2989899 0.88028,81.5 L0.88028,30.7 C0.88028,28.8589273 1.35411636,27.1285249 2.18649057,25.6240915 L2.120288,25.509197 C1.551951,24.217522 1.39695,22.770846 1.551951,21.375837 C1.810286,19.515825 2.740292,16.829141 5.995313,14.504126 L5.995313,14.504126 L6.04698,14.504126 C9.095333,12.385779 12.505355,12.075777 15.398707,13.470786 C15.140372,12.592447 14.933704,11.662441 14.933704,10.629101 C14.933704,10.215765 14.985371,9.802429 15.037038,9.337426 C15.398707,6.444074 16.845383,4.067392 19.067064,2.414048 Z" id="Logo-Outline" fill="#FFFFFF"></path>
            <g id="®" transform="translate(63.600000, 81.900000)">
                <circle id="®-Outline" fill="#FFFFFF" cx="5" cy="5" r="5"></circle>
                <path d="M5.09913366,1.004809 C7.26914766,1.004809 9.025619,2.76128033 9.025619,4.93129433 C9.025619,5.13794683 9.02582566,5.39567733 8.97415866,5.60234533 C8.61248966,7.46235733 7.01101933,8.85777967 5.04767333,8.85777967 C3.13599433,8.85777967 1.48265033,7.46235733 1.17264833,5.60234533 C1.12098649,5.39569283 1.12118798,5.18962933 1.12118798,4.93129433 C1.12118798,2.76128033 2.92911966,1.004809 5.09913366,1.004809 Z M5.09915433,1.469006 C3.18747533,1.469006 1.63787866,3.019636 1.63787866,4.931315 C1.63787866,5.1379675 1.63767199,5.395698 1.68933899,5.602366 C1.99934099,7.204043 3.39414333,8.39259067 5.09915433,8.39259067 C6.80416533,8.39259067 8.19896766,7.204043 8.50896966,5.602366 C8.56040932,5.3957135 8.56144266,5.18965 8.56144266,4.931315 C8.56144266,3.019636 7.01081266,1.469006 5.09913366,1.469006 Z M5.51309483,2.76070166 C5.87476383,2.76070166 6.28789316,2.76090833 6.59789516,2.96757633 C6.95956416,3.12257733 7.11456516,3.53632667 7.11456516,3.89799567 C7.11456516,4.72465217 6.4949745,5.08571666 5.7199695,5.08571666 L5.7199695,5.08571666 L5.9783045,5.65488034 L6.95915083,7.15239666 L6.33956016,7.15239666 L5.40914083,5.65488034 L5.09934033,5.13821034 L4.11746066,5.13821034 L4.11746066,7.15239666 L3.60079066,7.15239666 L3.60079066,2.76070166 Z M5.40913566,3.12297517 L4.16995433,3.12297517 L4.16995433,4.67298517 L5.09671044,4.67368571 C5.71174284,4.68114312 6.54642966,4.7300908 6.54642966,3.89798017 C6.54642966,3.22630917 5.97747266,3.12297517 5.40913566,3.12297517 L5.40913566,3.12297517 Z" fill="#E9388C" fill-rule="nonzero"></path>
            </g>
            <path d="M26.4957453,2.25481031 C25.0831695,2.28446716 22.483286,2.64029779 20.3582223,4.22259967 C18.6015443,5.514068 17.517054,7.425747 17.155385,9.69930167 C16.690382,12.8509887 18.4983137,14.9698523 20.0999907,16.8298643 C21.8050017,18.8448773 23.3035513,20.601142 22.3735453,23.6493917 C22.2702113,23.9593937 22.3224828,24.217522 22.4774838,24.475857 C22.6324848,24.734192 22.8385483,24.94086 23.1485348,24.992527 C23.7168718,25.199195 24.3374958,24.8373245 24.5441638,24.2689823 C25.8358388,20.0834387 23.6136412,17.4489383 21.8052962,15.3822583 C20.1002852,13.4189123 19.0674618,12.0755703 19.3774638,10.0088903 C19.6357988,8.30387933 20.4108038,6.96095067 21.7024788,6.03094467 C23.5624908,4.63593567 25.9908398,4.48052133 26.6108438,4.58385533 C29.2458608,4.99719133 30.0208658,7.01261767 30.2275338,7.83928967 C30.3825348,8.40762667 30.3821318,8.97534366 30.3304648,9.54368066 C30.1754638,10.7320217 29.6075402,11.7659817 28.6775342,12.4893197 L28.6250612,12.4893197 C27.5400542,13.0576567 26.6100482,13.0576567 26.0417112,12.4893197 C25.4733742,11.9726497 25.4223272,11.1459777 25.6289797,10.6809747 C25.8356477,10.267122 26.4039847,10.112121 27.2306567,10.215455 C27.5406587,10.267122 27.798787,10.215253 28.057122,10.0085855 C28.315457,9.8535845 28.4706595,9.595048 28.5223265,9.28504083 C28.6256605,8.66503683 28.2119215,8.09669983 27.5919072,7.99336583 C25.7835622,7.68336383 24.3370928,8.30417383 23.6654218,9.5958695 C22.9420838,10.9908785 23.3035513,12.8508905 24.4918872,13.9875645 C25.8352292,15.2792395 27.7989885,15.3823668 29.8141048,14.297365 L29.9695088,14.1934265 C32.1395228,12.5917495 33.0689088,9.80193816 32.4489048,7.1667145 C31.8289008,4.5833645 29.7622208,2.7233525 27.0238698,2.2583495 C26.8753272,2.25202353 26.6979234,2.25007451 26.4960914,2.2543143 L26.4957453,2.25481031 Z M11.9303013,14.8202247 C10.4125832,14.7620993 8.81152617,15.2535403 7.28734967,16.3127293 C5.01400167,17.9144063 3.98024833,19.8252587 3.77358033,21.685064 C3.56691233,23.286741 3.98024833,24.7854973 4.80692033,25.9738383 C6.51193133,28.4538543 10.0252873,29.693449 13.5903103,27.368434 L13.6417758,27.3169685 C15.5017878,25.9219595 15.4509475,23.1317348 14.2109395,21.4269305 C13.0225985,19.7735865 11.1109195,19.5160782 9.3025745,20.7044192 C8.7859045,21.0660882 8.68174383,21.7377592 8.9917665,22.2544292 C9.1467675,22.5127642 9.405304,22.6669592 9.71531117,22.7186262 C10.0253132,22.7702932 10.2834415,22.7192462 10.5417765,22.5642297 C11.5751165,21.8408917 12.0926132,22.3052902 12.4026152,22.7186262 C12.7642842,23.1836292 12.9186807,23.9069672 12.8153467,24.5269712 C12.7636797,24.9919742 12.6086787,25.3021828 12.2986767,25.5088508 C9.87032767,27.1105278 7.70031367,26.2323955 6.61530667,24.6823855 C5.42696567,22.9257075 5.53091967,20.2394368 8.52760567,18.1211932 C11.4726247,16.1061802 13.6420187,17.3455682 14.623795,18.2755897 C16.535474,20.0322677 17.3102723,23.0808273 16.2252653,24.9406327 C15.9152633,25.4573027 16.1223343,26.1808473 16.6390043,26.4391823 C16.8973393,26.5941833 17.2071347,26.6454473 17.4654697,26.5421133 C17.7754717,26.4387793 17.982553,26.2837783 18.137554,26.0254433 C19.687564,23.2354253 18.809225,19.102582 16.070874,16.622566 C14.882533,15.485892 13.4481537,14.8783914 11.9304356,14.820266 L11.9303013,14.8202247 Z M38.5780732,22.8740767 C36.9787212,22.8825552 34.9486731,23.1580437 32.5526677,23.700542 C29.4009807,24.372213 25.6809567,25.5086803 22.2709347,26.8520223 C18.8609127,28.1953643 15.34704,29.9009953 12.608689,31.6060063 C7.80314133,34.4476913 5.323642,37.0305247 5.788645,38.7355357 L5.788645,38.8910533 C5.788645,39.0977213 5.83990848,39.2527223 5.891576,39.4077233 L6.0984455,39.7689893 L6.202384,39.9758588 L12.402424,55.6826268 C12.764093,56.6126328 13.951814,57.1805565 15.91516,57.3355575 C16.225162,57.3872245 16.535164,57.5422255 16.690165,57.8522275 L31.0024407,85.5467728 C33.7407917,90.9718078 41.593659,90.8157735 47.690365,88.3359642 C54.562076,85.5459462 57.7142797,80.7930988 56.1126027,75.5230648 L55.8542677,74.6441058 C51.2559047,57.6456628 48.7764053,49.4822768 47.5363973,45.6072518 C47.4330633,45.2972498 47.4839243,44.9351675 47.7422593,44.6768325 C49.0856013,43.2301565 49.5510177,42.0418155 49.1893487,41.0601425 L42.9893087,25.3544078 L42.9378432,25.1475383 L42.8339047,24.7337993 L42.5755697,24.2685948 L42.4727523,24.1652608 C41.9788158,23.2931219 40.6349571,22.8627358 38.5786105,22.8733857 L38.5780732,22.8740767 Z M39.2128023,24.9801269 C40.14038,24.998696 40.7539256,25.1212037 41.0251773,25.3020382 C40.9218433,25.8187082 40.1474583,26.8007945 38.5457813,28.0408025 C34.9290913,28.4541385 29.5557233,29.9008145 24.3890233,31.9158275 C19.2223233,33.9825075 14.262808,36.7721122 11.369456,38.9936898 C9.35444301,39.1486908 8.113815,38.9936898 7.648812,38.7353548 C7.958814,37.4953468 12.918846,32.9486508 23.148912,28.8669578 C30.8214615,25.8056881 36.430431,24.9241457 39.2132156,24.9798428 L39.2128023,24.9801269 Z M41.9036197,28.6603673 L47.1219867,41.6298177 C46.9153187,43.0248267 41.5419507,47.7265237 32.0868897,51.4982147 C22.6318287,55.2182387 15.501266,55.5282407 14.416259,54.5982347 L9.19840866,41.6303343 C14.0551067,41.9920033 21.5984887,39.6661617 26.5585207,37.7028157 C31.5185527,35.7394697 38.5974483,32.2261137 41.9041363,28.6610907 L41.9036197,28.6603673 Z M45.4688493,46.6921503 C48.7238703,56.4572133 53.5805683,74.489513 54.0455713,75.987856 C55.3889133,80.431218 52.0305583,84.099575 46.8638583,86.166255 C41.4904903,88.336269 34.9287813,88.4393963 32.9137683,84.4093703 C32.2420973,83.0143613 23.252556,66.5325883 18.860861,57.2841953 C23.35589,56.8191923 28.832592,55.217722 32.810951,53.616045 C36.840977,52.014368 41.904343,49.4308113 45.469366,46.692667 L45.4688493,46.6921503 Z" id="Cup" fill="#613A00" fill-rule="nonzero"></path>
            <path d="M4.13581767,28.5577515 C3.98081667,29.1260885 3.87748267,29.7975528 3.87748267,30.4175568 L3.87748267,36.4109288 C4.70415467,34.6537342 6.61542033,32.7942388 9.66367,30.8308928 C7.545323,30.7792258 5.58239034,29.9008868 4.13581767,28.5575448 L4.13581767,28.5577515 Z M3.92914967,40.3894945 L3.92914967,81.5164265 C3.92914967,85.5981195 7.23521767,88.9053242 11.317014,88.9053242 L30.692139,88.9053242 C30.020468,88.2336532 29.452751,87.4578215 28.987748,86.5278155 C28.987748,86.5278155 17.104338,63.5370338 15.037658,59.4553408 C12.609309,59.1453388 11.0078387,58.1113788 10.3361677,56.5097018 L4.18779467,40.9062678 L3.92945967,40.3894945 L3.92914967,40.3894945 Z M32.1656818,60.100455 C31.5327611,60.100455 30.8731802,60.2031845 30.1756757,60.384019 C29.5556717,60.53902 28.8845173,60.745688 28.2645133,60.849022 C27.3345073,61.05569 26.9211713,61.520693 26.9728383,62.140697 C26.9728383,62.347365 27.0241023,62.4509005 27.3341043,63.1225767 C28.0574423,64.6725867 28.72994,66.274057 29.453278,67.824067 C29.711613,68.392404 29.762474,68.5478183 29.917475,68.7544863 C30.17581,69.0644883 30.4343517,69.2707533 30.8993547,69.374077 C31.2610237,69.477411 31.570819,69.4776125 32.24249,69.3226167 L33.4827047,69.0128162 C34.1027087,68.8578152 34.619792,68.6511472 34.929794,68.4961462 C35.653132,68.1344772 36.2210557,67.5140598 36.5827247,66.7907218 C37.1510617,65.6540478 37.203142,64.2594522 36.7381287,63.0711112 C36.5314607,62.6061082 36.2208387,62.0888182 35.8591697,61.6754822 C35.3424997,61.1071452 34.7227023,60.6936025 33.9993643,60.4352675 C33.4051938,60.202766 32.7987266,60.100238 32.1658058,60.100238 L32.1656818,60.100455 Z M32.0879798,62.9673535 L32.2423763,62.9673535 C32.9657143,63.0706875 33.586545,63.5361038 33.84488,64.1561078 C34.051548,64.7244448 33.9480125,65.3442422 33.6380105,65.7575782 C33.3796755,66.0675802 33.172806,66.2227827 32.1394608,66.4811228 C31.6739412,65.3961158 31.2094548,64.2594418 30.7444518,63.1744348 L31.0027868,63.1229745 C31.4677898,63.0196405 31.7775852,62.9675705 32.0875872,62.9675705 L32.0879798,62.9673535 Z" id="Orange" fill="#F17E06" fill-rule="nonzero"></path>
            <path d="M44.3833722,23.0296977 L44.4358503,23.0811632 C44.6425183,23.3394982 44.7967133,23.6490868 44.9000473,23.9590888 C45.0033813,24.1657568 45.0552498,24.4242933 45.1069168,24.6826335 C50.4286178,38.1160535 51.1519558,40.0272158 51.2552898,40.2855508 C51.4619578,40.7505538 51.5136248,41.2674305 51.5136248,41.7841005 C51.5136248,43.0241085 50.9973578,44.3157835 49.8606942,45.6591255 C51.2040362,49.7924855 53.6319718,58.0075385 57.9718965,74.0759755 L58.2302315,74.9549345 L58.2302315,74.9024615 C59.9352425,80.4308305 57.4035595,85.5975305 51.5651885,89.0075525 L55.3372928,89.0075525 C59.4189858,89.0075525 62.7251572,85.7004512 62.7251572,81.6186548 L62.7251572,30.4166578 C62.7251572,26.3349648 59.4190892,23.0287935 55.3372928,23.0287935 L44.3833722,23.0287935 L44.3833722,23.0296977 Z M41.8093274,56.2717288 C40.9831721,56.2303952 40.1213665,56.4680634 39.11386,56.9744 C38.493856,57.284402 37.925519,57.5425303 37.305515,57.8008653 C36.478843,58.1625343 36.0136333,58.7314913 36.0653003,59.4548293 C36.0653003,59.6614973 36.1167658,59.7648313 36.3751008,60.4881693 L38.2359395,65.2925803 C38.4426075,65.9125843 38.49367,66.0163317 38.648671,66.2229997 C38.855339,66.5330017 39.165961,66.6880027 39.52763,66.7396697 C39.837632,66.7913367 40.147634,66.7396697 40.819305,66.4813347 C41.232641,66.3263337 41.59369,66.1196657 42.007026,65.9646647 C42.575363,65.7063297 43.0401593,65.3965343 43.3501613,65.1381993 C44.0218323,64.6215293 44.5385023,63.8456977 44.9001713,63.0190257 C45.4168413,61.6756837 45.520382,60.1781673 45.1070408,58.9381593 C44.8492225,58.3698223 44.5908875,57.9048193 44.2808855,57.4914833 C43.8158825,56.9748133 43.2479588,56.613351 42.6279548,56.406683 C42.3567031,56.3291825 42.0848313,56.2841754 41.8095496,56.2704526 L41.8093274,56.2717288 Z M40.7661707,59.454819 L40.9215747,59.454819 C41.5932457,59.454819 42.110329,59.8681757 42.368664,60.4881797 C42.523665,61.0565167 42.4717965,61.7798547 42.1617945,62.2965247 C41.9034595,62.7098607 41.696187,62.8648617 40.7661655,63.3298647 L39.5269842,59.919016 L39.7853192,59.816085 C40.2503222,59.609417 40.5078305,59.506486 40.7661655,59.454819 L40.7661707,59.454819 Z" id="Pink" fill="#E9388C" fill-rule="nonzero"></path>
        </g>
    </g>
</svg>