<?xml version="1.0" encoding="UTF-8"?>
<svg width="300px" height="300px" viewBox="0 0 300 300" version="1.1" xmlns="http://www.w3.org/2000/svg" xmlns:xlink="http://www.w3.org/1999/xlink">
    <title>Logo / GGC light mode</title>
    <g id="Logo-/-GGC-light-mode" stroke="none" stroke-width="1" fill="none" fill-rule="evenodd">
        <g id="G" transform="translate(0, 34)">
            <path d="M138.079224,119.797372 L300,119.797372 C299.348555,194.48506 249.492024,219.149904 227.04345,225.813665 C204.022236,232.682223 125.785833,237.775878 85.6747033,225.813665 C-2.73264279,199.473692 -18.6930372,106.637888 19.3797009,51.1170461 C60.3103899,-8.55223626 139.5082,-12.2543259 192.700758,20.7914186 C70.2291603,25.1236511 56.0287172,167.493939 156.07801,203.485602 C175.201063,196.133934 205.256829,175.470498 207.563153,141.469037 L138.079224,141.469037 L138.079224,119.797372 Z" id="G_outer" fill="#191918"></path>
            <path d="M117.559453,20 C-15.4757229,35.1440366 1.38737315,201.120161 117.559453,208 C46.4834198,153.422738 59.2344623,58.5103202 117.559453,20 Z M195.021511,207.533304 C210.067531,200.663952 232.360848,159.395403 232.833498,140.134999 L277,140.134999 C271.112884,173.632266 244.702261,208 195.026762,207.533304 L195.021511,207.533304 Z" id="G_inner" fill="#085A45"></path>
        </g>
    </g>
</svg>