<?xml version="1.0" encoding="UTF-8" standalone="no"?>
<svg
   xmlns:dc="http://purl.org/dc/elements/1.1/"
   xmlns:cc="http://creativecommons.org/ns#"
   xmlns:rdf="http://www.w3.org/1999/02/22-rdf-syntax-ns#"
   xmlns:svg="http://www.w3.org/2000/svg"
   xmlns="http://www.w3.org/2000/svg"
   viewBox="0 0 238.92 46.786667"
   height="46.786667"
   width="238.92"
   xml:space="preserve"
   id="svg2"
   version="1.1"><metadata
     id="metadata8"><rdf:RDF><cc:Work
         rdf:about=""><dc:format>image/svg+xml</dc:format><dc:type
           rdf:resource="http://purl.org/dc/dcmitype/StillImage" /></cc:Work></rdf:RDF></metadata><defs
     id="defs6" /><g
     transform="matrix(1.3333333,0,0,-1.3333333,0,46.786667)"
     id="g10"><g
       transform="scale(0.1)"
       id="g12"><path
         id="path14"
         style="fill:#ffffff;fill-opacity:1;fill-rule:nonzero;stroke:none"
         d="M 92.5,3.70313 H 0 V 346.234 H 92.5 V 3.70313" /><path
         id="path16"
         style="fill:#ffffff;fill-opacity:1;fill-rule:nonzero;stroke:none"
         d="M 1791.94,93.9727 V 4.18359 h -365.92 c -15.59,0 -29.81,2.38672 -42.64,7.15621 -12.9,4.7891 -24.05,11.6485 -33.46,20.6055 -9.45,8.9531 -16.77,19.836 -22,32.6485 -5.26,12.8125 -7.87,27.2226 -7.87,43.2652 v 140.266 c 1.2,13.867 4.56,26.762 10.09,38.641 5.56,11.879 12.96,22.203 22.25,30.992 9.26,8.812 20.13,15.758 32.54,20.855 12.4,5.078 26.27,7.629 41.53,7.629 h 364.61 v -87.504 h -365.05 c -5.1,0 -9,-0.601 -11.69,-1.824 -2.68,-1.242 -4.73,-2.945 -6.05,-5.101 -1.35,-2.176 -2.12,-4.54 -2.26,-7.172 -0.15,-2.633 -0.19,-5.328 -0.19,-8.082 V 122.66 c 0,-8.332 1.1,-15.172 3.36,-20.586 2.24,-5.4099 7.69,-8.1013 16.37,-8.1013 h 366.38" /><path
         id="path18"
         style="fill:#ffffff;fill-opacity:1;fill-rule:nonzero;stroke:none"
         d="m 525.34,229.613 c 0,3.668 -0.164,7.239 -0.457,10.637 -0.313,3.398 -1.078,6.387 -2.258,9.02 -1.184,2.628 -3.047,4.785 -5.598,6.464 -2.55,1.7 -6.054,2.551 -10.55,2.551 H 250.078 c -5.101,0 -8.957,-0.601 -11.652,-1.824 -2.715,-1.242 -4.727,-2.945 -6.074,-5.102 -1.325,-2.175 -2.09,-4.558 -2.239,-7.171 -0.144,-2.633 -0.226,-5.329 -0.226,-8.106 V 122.211 c 0,-8.336 1.14,-15.219 3.355,-20.609 2.281,-5.3676 7.692,-8.0825 16.418,-8.0825 h 255.926 c 4.766,0 8.496,0.7032 11.211,2.0899 2.695,1.3711 4.726,3.1523 6.055,5.3086 1.367,2.156 2.093,4.684 2.257,7.629 0.149,2.941 0.231,5.949 0.231,9.039 z M 611.996,107.387 C 611.996,90.7383 609.445,76 604.344,63.1875 599.266,50.375 592.156,39.5742 583.035,30.7852 573.891,21.9961 562.801,15.3008 549.801,10.6563 536.762,6.01172 522.336,3.69141 506.477,3.69141 H 250.078 c -15.551,0 -29.769,2.40234 -42.644,7.19529 -12.871,4.7656 -24.004,11.6485 -33.461,20.6055 -9.41,8.9336 -16.77,19.8164 -21.993,32.6289 -5.226,12.7891 -7.835,27.2187 -7.835,43.2659 v 140.265 c 1.179,13.887 4.558,26.844 10.097,38.891 5.512,12.023 12.91,22.449 22.199,31.238 9.309,8.789 20.153,15.735 32.571,20.817 12.418,5.097 26.242,7.629 41.543,7.629 h 255.922 c 17.328,0 32.609,-2.676 45.793,-8.086 13.164,-5.391 24.171,-12.895 33.003,-22.453 8.809,-9.555 15.485,-20.981 19.985,-34.247 4.496,-13.289 6.738,-27.925 6.738,-43.968 V 107.387" /><path
         id="path20"
         style="fill:#ffffff;fill-opacity:1;fill-rule:nonzero;stroke:none"
         d="m 663.164,269.875 c 0,11.422 2.324,22.055 6.945,31.922 4.645,9.891 10.864,18.43 18.637,25.707 7.797,7.234 16.774,12.957 26.949,17.101 10.16,4.188 20.649,6.262 31.43,6.262 24.254,0 46.996,-10.801 68.266,-32.383 L 1041.21,94.4297 V 346.246 h 84.42 V 94.4297 c 0,-13.5781 -2.24,-26.1641 -6.72,-37.7305 -4.5,-11.5469 -10.64,-21.5195 -18.41,-29.8515 -7.79,-8.3164 -16.77,-14.8868 -26.95,-19.65239 C 1063.39,2.40625 1052.59,0 1041.21,0 c -6.26,0 -12.17,0.765625 -17.72,2.32031 -5.54,1.53516 -11.67,4.33594 -18.41,8.31639 -6.74,4.0196 -14.533,9.6367 -23.326,16.9141 -8.852,7.2344 -19.551,16.5625 -32.129,27.9844 L 747.125,259.238 V 3.71094 H 663.164 V 269.875" /><path
         id="path22"
         style="fill:#ffffff;fill-opacity:1;fill-rule:nonzero;stroke:none"
         d="m 1269.32,3.70313 h -92.5 V 346.234 h 92.5 V 3.70313" /></g></g></svg>