<?xml version="1.0" encoding="UTF-8"?>
<svg width="240px" height="48px" viewBox="0 0 240 48" version="1.1" xmlns="http://www.w3.org/2000/svg" xmlns:xlink="http://www.w3.org/1999/xlink">
    <!-- Generator: Sketch 53.2 (72643) - https://sketchapp.com -->
    <title>IONIC-dark-grey-logo</title>
    <desc>Created with Sketch.</desc>
    <g id="Page-1" stroke="none" stroke-width="1" fill="none" fill-rule="evenodd">
        <g id="IONIC-dark-grey-logo" transform="translate(0.000000, -1.000000)" fill="#454547" fill-rule="nonzero">
            <g id="g10" transform="translate(120.333329, 24.666672) scale(-1, 1) rotate(-180.000000) translate(-120.333329, -24.666672) translate(0.333332, 0.666672)">
                <g id="g12" transform="translate(0.000000, 0.533333)">
                    <polyline id="path14" points="12.4354664 0.564533319 0.101599997 0.564533319 0.101599997 46.2354655 12.4354664 46.2354655 12.4354664 0.564533319"></polyline>
                    <path d="M239.026661,12.600533 L239.026661,0.628666651 L190.238662,0.628666651 C188.158662,0.628666651 186.262662,0.94693331 184.551995,1.58226663 C182.833329,2.22079994 181.345329,3.13599992 180.090662,4.33026656 C178.830662,5.52399986 177.854662,6.97506649 177.158662,8.68333312 C176.455996,10.3917331 176.107996,12.3130664 176.107996,14.452133 L176.107996,33.1541325 C176.267996,35.0030658 176.715996,36.7223991 177.454662,38.3062657 C178.194662,39.8901323 179.181329,41.2666656 180.419995,42.4385323 C181.654662,43.6135989 183.103995,44.5395989 184.759995,45.2193322 C186.411995,45.8963989 188.261329,46.2363988 190.295995,46.2363988 L238.910661,46.2363988 L238.910661,34.5693325 L190.238662,34.5693325 C189.557329,34.5693325 189.038662,34.4890658 188.678662,34.3259991 C188.322662,34.1598658 188.047995,33.9333325 187.871995,33.6458658 C187.691995,33.3557325 187.590662,33.0406658 187.570662,32.6895992 C187.550662,32.3385325 187.545329,31.9791992 187.545329,31.6119992 L187.545329,16.4254663 C187.545329,15.314533 187.691995,14.4026663 187.993329,13.6806663 C188.291995,12.959333 189.018662,12.600533 190.177329,12.600533 L239.026661,12.600533" id="path16"></path>
                    <path d="M70.1466649,30.6859992 C70.1466649,31.1750659 70.1253316,31.6510659 70.0866649,32.1041325 C70.0453316,32.5573325 69.9426649,32.9557325 69.7853316,33.3067992 C69.6266649,33.6573325 69.3786649,33.9447992 69.0386649,34.1687991 C68.6986649,34.3958658 68.2319983,34.5087991 67.6319983,34.5087991 L33.4453325,34.5087991 C32.7655992,34.5087991 32.2510659,34.4286658 31.8917325,34.2655991 C31.5297325,34.0994658 31.2614659,33.8729325 31.0822659,33.5854658 C30.9051992,33.2953325 30.8030659,32.9775992 30.7833326,32.6291992 C30.7639992,32.2781325 30.7530659,31.9187992 30.7530659,31.5483992 L30.7530659,16.3650663 C30.7530659,15.254133 30.9051992,14.3363996 31.2010659,13.617733 C31.5046659,12.902133 32.2259992,12.540133 33.3901325,12.540133 L67.5133316,12.540133 C68.1493316,12.540133 68.646665,12.6338664 69.0079983,12.8187997 C69.3679983,13.0015997 69.6386649,13.2390663 69.8146649,13.526533 C69.9973316,13.8139997 70.0946649,14.1510663 70.1159982,14.543733 C70.1359982,14.9359996 70.1466649,15.3369329 70.1466649,15.7489329 L70.1466649,30.6859992 Z M81.7013313,14.3890663 C81.7013313,12.169333 81.3613313,10.2041331 80.6813313,8.49586645 C80.003998,6.7874665 79.055998,5.3473332 77.8399981,4.17546656 C76.6199981,3.00359992 75.1413315,2.11093328 73.4093315,1.4917333 C71.6693315,0.872399978 69.7466649,0.563066653 67.6319983,0.563066653 L33.4453325,0.563066653 C31.3723992,0.563066653 29.4759993,0.883866645 27.7593326,1.52239996 C26.0431993,2.15786661 24.5587994,3.07546659 23.2983994,4.26973323 C22.0431994,5.4609332 21.0625328,6.91199983 20.3655995,8.62026645 C19.6693328,10.3254664 19.3207995,12.2494664 19.3207995,14.3890663 L19.3207995,33.0911992 C19.4786662,34.9426658 19.9286662,36.6702657 20.6671995,38.275999 C21.4026661,39.8797323 22.3890661,41.2697323 23.6270661,42.4417323 C24.868266,43.6135989 26.3139993,44.5395989 27.9697326,45.2171989 C29.6254659,45.8969322 31.4693325,46.2343988 33.5087992,46.2343988 L67.6319983,46.2343988 C69.9426649,46.2343988 71.9799982,45.8775989 73.7373315,45.1562655 C75.4933314,44.4374656 76.9599981,43.4369322 78.1386647,42.1625323 C79.3133314,40.8885323 80.2026647,39.3650657 80.8026646,37.5963991 C81.4026646,35.8245324 81.7013313,33.8729325 81.7013313,31.7338659 L81.7013313,14.3890663 L81.7013313,14.3890663 Z" id="path18"></path>
                    <path d="M88.5239978,36.0535991 C88.5239978,37.5765324 88.8333311,38.994799 89.4493311,40.310399 C90.0693311,41.629199 90.8973311,42.7677323 91.9346644,43.7379989 C92.973331,44.7026655 94.1706643,45.4655989 95.5279976,46.0182655 C96.8826642,46.5765322 98.2813309,46.8530655 99.7186642,46.8530655 C102.951997,46.8530655 105.983997,45.4130655 108.819997,42.5354656 L138.92933,12.6614664 L138.92933,46.2369322 L150.18533,46.2369322 L150.18533,12.6614664 C150.18533,10.8510664 149.886663,9.1729331 149.28933,7.63066648 C148.68933,6.09119985 147.871996,4.76146655 146.834663,3.65053324 C145.795996,2.54173327 144.598663,1.66559996 143.24133,1.03026664 C141.886663,0.391733324 140.446663,0.0707999982 138.92933,0.0707999982 C138.094663,0.0707999982 137.306663,0.172933329 136.566663,0.380266657 C135.827997,0.584933319 135.010663,0.958399976 134.111997,1.48906663 C133.21333,2.02506662 132.174663,2.77399993 131.002663,3.74426657 C129.822663,4.70879988 128.395997,5.95266652 126.718663,7.47546648 L99.7186642,34.6359991 L99.7186642,0.565599986 L88.5239978,0.565599986 L88.5239978,36.0535991" id="path20"></path>
                    <polyline id="path22" points="169.345329 0.564533319 157.010663 0.564533319 157.010663 46.2354655 169.345329 46.2354655 169.345329 0.564533319"></polyline>
                </g>
            </g>
        </g>
    </g>
</svg>