<?xml version="1.0" encoding="UTF-8"?>
<svg width="128px" height="128px" viewBox="0 0 128 128" version="1.1" xmlns="http://www.w3.org/2000/svg" xmlns:xlink="http://www.w3.org/1999/xlink">
    <!-- Generator: Sketch 59.1 (86144) - https://sketch.com -->
    <title>Motif logo light</title>
    <desc>Created with Sketch.</desc>
    <g id="Motif-logo-light" stroke="none" stroke-width="1" fill="none" fill-rule="evenodd">
        <g id="Motif-logo" transform="translate(-1.000000, -0.500000)" fill="#FFFFFF">
            <g id="Flattened-to-outlines" transform="translate(10.000000, 19.000000)">
                <path d="M71.1872136,79.5383592 L72.0816408,81.3272136 L54.74,89.998034 L37.3983592,81.3272136 L38.2927864,79.5383592 L54.74,87.761966 L71.1872136,79.5383592 Z M48.1,35.44 C54.26,35.44 58.572,40.544 58.484,46.88 C58.352,53.216 53.864,58.32 47.704,58.32 C41.544,58.32 37.232,53.216 37.364,46.88 C37.452,40.544 41.94,35.44 48.1,35.44 Z M67.908,29.28 L67.908,35.88 L74.508,35.88 L74.508,37.42 L67.908,37.42 L67.908,52.6 C67.908,55.2216667 69.3868889,55.625 70.9890185,55.6740162 L70.9890185,55.6740162 L71.428,55.68 C72.308,55.68 74.288,55.46 75.828,55.02 L75.828,55.02 L75.828,55.68 C73.628,57.44 70.988,58.32 68.788,58.32 C65.708,58.32 64.388,56.78 64.388,53.04 L64.388,53.04 L64.388,37.42 L61.308,37.42 L61.308,36.1 L64.388,35.44 L67.028,29.28 L67.908,29.28 Z M8.58,27.08 L18.04,52.5983592 L27.28,27.08 L35.2,27.08 L35.2,27.96 L31.24,28.4 L31.24,56.56 L35.2,57 L35.2,57.88 L23.76,57.88 L23.76,57 L27.72,56.56 L27.72,31.04 L17.82,58.1 L16.06,58.1 L5.72,30.6 L5.72,56.56 L9.68,57 L9.68,57.88 L-1.42108547e-14,57.88 L-1.42108547e-14,57 L3.96,56.56 L3.96,28.4 L-1.42108547e-14,27.96 L-1.42108547e-14,27.08 L8.58,27.08 Z M86.408,35.44 L86.408,56.56 L90.368,57 L90.368,57.88 L78.928,57.88 L78.928,57 L82.888,56.56 L82.888,37.64 L79.368,37.42 L79.368,36.54 L85.968,35.44 L86.408,35.44 Z M108.568,24 L108.568,27.74 L108.008258,27.6549323 C101.76022,26.7677842 101.968,29.0383099 101.968,35.88 L107.688,35.88 L107.688,37.42 L101.968,37.42 L101.968,56.56 L105.928,57 L105.928,57.88 L94.928,57.88 L94.928,57 L98.448,56.56 L98.448,37.42 L95.368,37.42 L95.368,36.1 L98.448,35.88 C99.108,28.928 104.916,24 108.568,24 Z M47.924,36.76 C43.832,36.76 41.324,40.28 41.324,46.88 C41.324,53.48 43.832,57 47.924,57 C52.016,57 54.524,53.48 54.524,46.88 C54.524,40.28 52.016,36.76 47.924,36.76 Z M84.648,25.76 C86.1,25.76 87.288,26.948 87.288,28.4 C87.288,29.852 86.1,31.04 84.648,31.04 C83.196,31.04 82.008,29.852 82.008,28.4 C82.008,26.948 83.196,25.76 84.648,25.76 Z M71.1872136,0.0383592135 L72.0816408,1.8272136 L54.74,10.498034 L37.3983592,1.8272136 L38.2927864,0.0383592135 L54.74,8.26196601 L71.1872136,0.0383592135 Z" id="Combined-Shape" fill-rule="nonzero"></path>
            </g>
        </g>
    </g>
</svg>