<?xml version="1.0" encoding="UTF-8"?>
<svg width="108px" height="41px" viewBox="0 0 108 41" version="1.1" xmlns="http://www.w3.org/2000/svg" xmlns:xlink="http://www.w3.org/1999/xlink">
    <!-- Generator: Sketch 52.6 (67491) - http://www.bohemiancoding.com/sketch -->
    <title>ncr</title>
    <desc>Created with Sketch.</desc>
    <g id="ncr" stroke="none" stroke-width="1" fill="none" fill-rule="evenodd">
        <path d="M63.812,22.437 C63.812,22.437 63.624,21.748 63.624,21.238 L63.624,13.259 L66.821,13.259 L66.821,28.63 L56.589,20.157 C56.041,19.691 55.718,19.171 55.718,19.171 C55.718,19.171 55.879,19.743 55.879,20.24 L55.876,28.283 L52.679,28.283 L52.679,12.972 L62.818,21.275 C63.36,21.736 63.812,22.437 63.812,22.437" id="Fill-1" fill="#8C979B"></path>
        <path d="M92.754,13.259 C97.816,13.259 99.115,15.256 99.115,18.127 C99.115,20.21 97.583,22.245 94.494,22.488 L94.155,22.504 C94.155,22.504 94.454,22.557 94.766,22.858 L100.374,28.283 L96.04,28.283 L88.212,20.334 L92.111,20.334 C95.602,20.334 95.702,18.495 95.728,18.028 C95.793,16.837 95.411,15.881 92.747,15.881 L88.292,15.881 L88.292,28.283 L84.968,28.283 L84.968,13.259 L92.754,13.259" id="Fill-2" fill="#8C979B"></path>
        <path d="M68.259,20.986 C68.259,14.691 73.528,13.039 77.956,13.039 C79.729,13.039 81.3,13.197 82.95,13.546 L82.956,16.738 C82.005,16.447 80.097,15.807 77.956,15.807 C73.759,15.807 71.72,17.437 71.72,20.986 C71.72,23.893 73.917,25.744 77.956,25.744 C80.097,25.744 82.241,25.234 83.278,24.852 L83.273,27.947 C81.623,28.297 79.729,28.512 77.956,28.512 C73.226,28.512 68.259,26.213 68.259,20.986" id="Fill-3" fill="#8C979B"></path>
        <path d="M32.292,13.646 L35.408,16.581 C35.324,16.619 35.226,16.666 35.111,16.725 C34.932,16.817 34.716,16.943 34.458,17.121 C33.944,17.476 33.272,18.038 32.417,18.964 L26.326,25.411 C25.28,26.514 24.22,27.389 23.232,27.85 L20.115,24.914 C20.2,24.875 20.298,24.83 20.412,24.77 C20.591,24.678 20.808,24.552 21.065,24.373 C21.578,24.019 22.249,23.457 23.105,22.531 L29.195,16.095 C30.241,14.992 31.304,14.107 32.292,13.646" id="Fill-4" fill="#51AF46"></path>
        <path d="M20.225,29.231 C21.604,29.231 22.869,28.957 23.728,28.511 C24.122,28.307 24.682,27.953 25.165,27.578 C25.646,27.203 26.324,26.62 26.902,26.008 L33,19.58 C34.537,17.959 35.462,17.46 36.022,17.262 L39.151,20.225 C38.498,20.924 30.713,29.215 30.713,29.215 C30.181,29.787 29.622,30.34 29.243,30.69 C28.878,31.026 28.253,31.526 27.93,31.764 C26.1,33.106 23.653,34.193 20.359,34.193 C12.898,34.193 6.862,28.119 6.862,21.125 C6.862,12.449 13.641,7.414 19.817,7.414 C21.708,7.358 23.228,7.676 24.427,8.084 C25.537,8.462 26.375,8.918 26.982,9.229 C26.265,9.689 25.569,10.316 24.422,11.541 L23.172,12.884 C22.884,12.774 21.606,12.329 19.965,12.378 C16.005,12.495 11.671,15.708 11.827,20.975 C11.973,25.9 16.034,29.231 20.225,29.231" id="Fill-5" fill="#51AF46"></path>
        <path d="M31.755,13.029 C31.362,13.234 30.802,13.587 30.318,13.963 C29.838,14.337 29.159,14.92 28.581,15.532 L22.483,21.96 C20.946,23.581 20.021,24.08 19.461,24.277 L16.332,21.317 C16.986,20.617 24.771,12.326 24.771,12.326 C25.303,11.754 25.861,11.201 26.24,10.851 C26.605,10.514 27.23,10.014 27.554,9.776 C29.384,8.435 31.832,7.347 35.126,7.347 C42.587,7.347 48.622,13.421 48.622,20.414 C48.622,29.092 41.843,34.125 35.667,34.125 C33.775,34.182 32.256,33.863 31.057,33.455 C29.944,33.076 29.104,32.619 28.496,32.309 C29.256,31.797 29.905,31.234 31.061,30 L32.312,28.656 C32.6,28.766 33.877,29.211 35.519,29.162 C39.479,29.045 43.812,25.832 43.656,20.565 C43.511,15.64 39.447,12.31 35.257,12.31 C33.878,12.31 32.615,12.583 31.755,13.029" id="Fill-6" fill="#51AF46"></path>
    </g>
</svg>