<?xml version="1.0" encoding="utf-8"?>
<!-- Generator: Adobe Illustrator 21.0.0, SVG Export Plug-In . SVG Version: 6.00 Build 0)  -->
<svg version="1.1" id="Layer_1" xmlns="http://www.w3.org/2000/svg" xmlns:xlink="http://www.w3.org/1999/xlink" x="0px" y="0px"
	 viewBox="0 0 226 60" style="enable-background:new 0 0 226 60;" xml:space="preserve">
<style type="text/css">
	.st0{fill:#074A76;}
</style>
<g>
	<path class="st0" d="M140.8,14.6h-11.5l-17,33.7h10.6l0-0.2c0,0,3.7-8.1,13.7-11.6l2.4,11.7h10L140.8,14.6z M128.9,35l5-11.7
		l2.1,10.1C133.6,33.5,131.2,34,128.9,35z"/>
	<path class="st0" d="M28.1,36L26,48.3h-9.8l5.6-33.7H33c2.6,0,4.5,0.1,5.7,0.3c1.2,0.2,2.4,0.8,3.7,1.6c1.3,0.8,2.3,2,3,3.4
		c0.7,1.4,1.1,3,1.1,4.6c0,3.2-1,5.9-3.1,8.1c-2.1,2.2-5,3.3-8.8,3.3H28.1z M29.3,28.7h2.3c3.6,0,5.4-1.2,5.4-3.6
		c0-2.1-1.5-3.2-4.5-3.2h-2.1L29.3,28.7z"/>
	<path class="st0" d="M115.4,14.6h8.9L107,48.3h-9.9l0.7-20.2L87.6,48.3h-8.2l-1.5-33.7h9.4l-0.6,20.2l10.2-20.2h8.2l0.4,20.2
		L115.4,14.6z"/>
	<path class="st0" d="M172.1,34.2l3.7,14.1h-10l-3-12.8h-4l-2,12.8h-9.6l5.4-33.7h14.7c4,0,7,0.9,8.9,2.6c1.9,1.8,2.9,4.1,2.9,7.2
		C179.1,29.2,176.8,32.5,172.1,34.2z M160,28.5h3.8c3.6,0,5.4-1.2,5.4-3.7c0-2.1-1.5-3.1-4.6-3.1h-3.5L160,28.5z"/>
	<path class="st0" d="M204.1,40.6l-1.2,7.7h-24.8l5.4-33.7h24.1l-1.2,7.3H192l-0.9,5.4h12.1l-1.2,7.3H190l-1,6H204.1z"/>
	<path class="st0" d="M65.3,31.5L73,48.3H60.7l-5.1-15.4l-2.5,15.4h-9.9l5.5-33.7h9.9L56.3,29L66,14.6h12.5L65.3,31.5z"/>
	<path class="st0" d="M216.7,17.4c0,1.7-1.5,3.2-3.2,3.2c-1.8,0-3.2-1.4-3.2-3.2c0-1.8,1.4-3.2,3.2-3.2
		C215.3,14.2,216.7,15.6,216.7,17.4z M211,17.4c0,1.4,1.1,2.6,2.5,2.6c1.4,0,2.5-1.1,2.5-2.5c0-1.4-1.1-2.6-2.5-2.6
		C212.1,14.9,211,16,211,17.4z M214.1,19.2l-1-1.5h0v1.5h-0.6v-3.5h1.1c0.8,0,1.2,0.3,1.2,0.9c0,0.6-0.4,1-0.9,1
		c0.1,0.1,0.2,0.3,0.4,0.5l0.7,1.1H214.1z M213.5,16.1h-0.4v1.1h0.2c0.6,0,0.7-0.3,0.7-0.6C214,16.3,213.9,16.1,213.5,16.1z"/>
</g>
</svg>
