<?xml version="1.0" encoding="UTF-8"?>
<svg width="300px" height="288px" viewBox="0 0 300 288" version="1.1" xmlns="http://www.w3.org/2000/svg" xmlns:xlink="http://www.w3.org/1999/xlink">
    <title>Realtor.com-logo</title>
    <g id="Logos" stroke="none" stroke-width="1" fill="none" fill-rule="evenodd">
        <g id="Logo-/-Realtor.com" transform="translate(0.000000, -6.000000)">
            <g id="Realtor.com-logo" transform="translate(0.000000, 6.000000)">
                <polygon id="Fill-56" fill="#D92228" points="300 151.53605 150.148381 0 0 151.53605 45.7962438 151.53605 45.7962438 287.5 254.302669 287.5 254.302669 151.53605"></polygon>
                <path d="M207.319781,111.827181 C203.363313,107.934163 197.032938,105.793 189.416725,105.793 C176.8549,105.793 168.941956,110.951244 163.5018,115.428231 L163.402888,115.525556 C157.962719,120.683813 151.731263,127.691256 146.587844,141.316844 C146.68675,137.521144 146.785669,132.265575 146.884588,127.3993 C147.082406,119.8079 147.181313,113.287069 147.181313,112.508463 C147.181313,110.853931 145.994369,109.102056 143.422663,109.102056 L94.6590563,109.102056 L94.6590563,113.189744 L95.9449125,113.287069 C99.9013938,113.579044 103.66005,113.96835 107.121969,116.401481 C110.188238,118.445325 112.067569,121.267769 112.661044,124.868819 C113.650163,129.053831 113.650156,141.316856 113.650156,146.572444 L113.650156,216.160281 C113.650156,223.26505 113.452331,232.997619 112.3643,239.518438 C110.386056,245.8446 108.308919,247.791131 104.0557,249.9323 C101.681813,251.002869 98.7144563,251.781475 95.3514438,252.170775 L93.966675,252.268113 L93.966675,256.355788 L166.765894,256.355788 L166.765894,252.268113 L165.480025,252.170775 C162.512669,251.878794 160.336606,251.489494 157.369244,250.224256 C155.193188,249.44565 153.313856,247.499144 151.335619,243.898094 C148.467169,237.863906 146.686756,231.051113 146.686756,214.505744 L146.686756,185.5027 C146.686756,176.743394 147.0824,168.276063 147.379138,164.577694 C150.643231,141.414188 163.402888,122.824975 171.711494,122.824975 C174.876675,122.824975 176.953831,126.231369 179.2288,131.681606 C181.899425,137.91045 185.658081,144.528613 196.439481,144.528613 C207.121981,144.528613 212.759963,135.671963 212.759963,126.815331 C212.858869,120.781131 211.078444,115.914869 207.319781,111.827181 Z" id="Fill-57" fill="#FFFFFF"></path>
            </g>
        </g>
    </g>
</svg>