<?xml version="1.0" encoding="UTF-8" standalone="no"?>
<!-- Created with Inkscape (http://www.inkscape.org/) -->
<svg xmlns:rdf="http://www.w3.org/1999/02/22-rdf-syntax-ns#" xmlns="http://www.w3.org/2000/svg" height="8" width="16" version="1.1" xmlns:cc="http://creativecommons.org/ns#" xmlns:xlink="http://www.w3.org/1999/xlink" xmlns:dc="http://purl.org/dc/elements/1.1/">
	<defs>
		<linearGradient id="a" y2="1044.4" gradientUnits="userSpaceOnUse" x2="15" gradientTransform="translate(0 4)" y1="1044.4" x1="10">
			<stop stop-color="#607d8b" stop-opacity="0" offset="0"/>
			<stop stop-color="#607d8b" offset=".13889"/>
			<stop stop-color="#607d8b" offset="1"/>
		</linearGradient>
	</defs>
	<metadata>
		<rdf:RDF>
			<cc:Work rdf:about="">
				<dc:format>image/svg+xml</dc:format>
				<dc:type rdf:resource="http://purl.org/dc/dcmitype/StillImage"/>
				<dc:title>Slide Social Buttons Logo</dc:title>
			</cc:Work>
		</rdf:RDF>
	</metadata>
	<g transform="translate(0,-8)">
		<rect height="6" width="14" y="9" x="1" fill="#f1f1f1"/>
		<g fill="#880e4f">
			<path d="m6.4044 11.936q-0.063477 0-0.10547-0.01465-0.041992-0.01367-0.066406-0.03125t-0.03418-0.0332q-0.00977-0.0166-0.00977-0.02148 0-0.01758 0.00781-0.03711 0.00781-0.02051 0.019531-0.03711 0.011719-0.01758 0.025391-0.0293t0.024414-0.01172q0.013672 0 0.022461 0.01758 0.00195 0.002 0.00977 0.0098 0.00781 0.0078 0.021484 0.0166 0.014648 0.0078 0.035156 0.01465 0.021484 0.0068 0.049805 0.0068 0.061523 0 0.10059-0.03711 0.039063-0.03809 0.039063-0.10254 0-0.04492-0.021484-0.08008-0.020508-0.03516-0.054687-0.06543-0.03418-0.03027-0.078125-0.05859-0.043945-0.0293-0.089844-0.06055-0.045898-0.03125-0.089844-0.06738-0.043945-0.03613-0.078125-0.08301-0.03418-0.04687-0.055664-0.10547-0.020508-0.05957-0.020508-0.13574 0-0.06543 0.022461-0.13184t0.061524-0.12598q0.040039-0.06055 0.09375-0.1123 0.053711-0.05273 0.11621-0.09082 0.0625-0.03906 0.12988-0.06055 0.068359-0.02246 0.13672-0.02246 0.058594 0 0.10547 0.01856 0.046875 0.01855 0.079102 0.05273 0.032227 0.0332 0.049805 0.08106 0.017578 0.04687 0.017578 0.10547 0 0.05566-0.019531 0.10938-0.019531 0.05371-0.051758 0.10156-0.032226 0.04785-0.073242 0.08887-0.040039 0.04004-0.083008 0.07031-0.041992 0.0293-0.082031 0.0459t-0.070312 0.0166q-0.026367 0-0.047852-0.01172-0.020508-0.0127-0.035156-0.03027-0.013672-0.01855-0.021484-0.03809-0.00781-0.02051-0.00781-0.03613 0-0.0127 0.00293-0.0166 0.00391-0.0039 0.00977-0.0029 0.00684 0 0.016602 0.0029 0.00977 0.002 0.022461 0.002 0.041016 0 0.09082-0.02832 0.049805-0.02832 0.09375-0.07227t0.073242-0.09668q0.030273-0.05274 0.030273-0.10254 0-0.05078-0.025391-0.08008-0.024414-0.0293-0.083984-0.0293-0.037109 0-0.081055 0.01465-0.042969 0.01367-0.086914 0.03906t-0.084961 0.06152-0.072266 0.08008q-0.03125 0.04297-0.050781 0.09375-0.018555 0.04981-0.018555 0.10449 0 0.05762 0.020508 0.10352 0.021484 0.04492 0.055664 0.08203 0.035156 0.03711 0.079101 0.06836t0.089844 0.0625q0.045898 0.03027 0.089844 0.06348 0.043945 0.03223 0.078125 0.07227 0.035156 0.03906 0.055664 0.08789 0.021484 0.04785 0.021484 0.11035 0 0.06055-0.023437 0.11523-0.022461 0.05371-0.0625 0.09375t-0.094727 0.06348q-0.054687 0.02344-0.11719 0.02344z"/>
			<path d="m7.0694 11.272q0.010742-0.02051 0.020508-0.05469 0.010742-0.03516 0.019531-0.07715 0.00977-0.04199 0.017578-0.08789 0.00781-0.0459 0.013672-0.08984 0.00586-0.04395 0.00879-0.08203 0.00391-0.03906 0.00391-0.06641 0-0.09961-0.014648-0.14551-0.014648-0.04687-0.039063-0.04687-0.00781 0-0.013672 0.0078-0.00586 0.0078-0.00977 0.02051-0.00391 0.01172-0.00586 0.02637-0.0009765 0.01367-0.0009765 0.02539v0.57031zm0.28418 0.30176q0.00586-0.0293 0.017578-0.04199 0.012695-0.01367 0.026367-0.01465 0.014648-0.002 0.029297 0.0068 0.014648 0.0078 0.025391 0.02148 0.010742 0.01367 0.015625 0.03125 0.00586 0.0166 0.00195 0.0332-0.013672 0.04004-0.039063 0.09375t-0.064453 0.10156q-0.039063 0.04785-0.091797 0.08106-0.052734 0.0332-0.12109 0.0332-0.057617 0-0.10156-0.01953-0.043945-0.01855-0.074219-0.05274-0.029297-0.03516-0.044922-0.08301-0.014648-0.04883-0.014648-0.1084v-0.91016q0-0.05566 0.013672-0.10254 0.014648-0.04785 0.039063-0.08105 0.025391-0.03418 0.058594-0.05273 0.033203-0.01953 0.070312-0.01953 0.043945 0 0.074219 0.0166 0.030273 0.01563 0.049805 0.04199 0.019531 0.02637 0.030273 0.06055 0.011719 0.03418 0.016602 0.07031 0.00488 0.03516 0.00586 0.07031 0.0009766 0.03418 0.0009766 0.0625 0 0.07324-0.013672 0.1543-0.013672 0.08008-0.035156 0.1582-0.020508 0.07813-0.045898 0.15039-0.024414 0.07129-0.047852 0.12695-0.022461 0.05566-0.041016 0.09082-0.017578 0.03516-0.024414 0.04102v0.11621q0 0.06055 0.025391 0.09961 0.025391 0.03809 0.081055 0.03809 0.03418 0 0.063477-0.02051 0.030273-0.02148 0.052734-0.05273 0.023437-0.03223 0.039063-0.06934 0.015625-0.03809 0.022461-0.07129z"/>
			<path d="m7.4649 10.902q-0.024414 0-0.046875-0.0098-0.021484-0.0098-0.038086-0.02637-0.015625-0.0166-0.025391-0.03809-0.00977-0.02246-0.00977-0.04785 0-0.02637 0.00977-0.04883t0.025391-0.03809q0.016602-0.0166 0.038086-0.02539 0.022461-0.0098 0.046875-0.0098 0.026367 0 0.048828 0.0098 0.022461 0.0088 0.038086 0.02539 0.016602 0.01563 0.025391 0.03809 0.00977 0.02246 0.00977 0.04883 0 0.02539-0.00977 0.04785-0.00879 0.02148-0.025391 0.03809-0.015625 0.0166-0.038086 0.02637-0.022461 0.0098-0.048828 0.0098zm0.045898 0.79394q0 0.0068 0.0009766 0.02246 0.0009765 0.01465 0.00586 0.03027 0.00488 0.01563 0.015625 0.02734 0.010742 0.01172 0.030273 0.01172 0.029297 0 0.050781-0.02148 0.022461-0.02149 0.038086-0.05371 0.016602-0.03223 0.027344-0.06934 0.010742-0.03809 0.017578-0.07129 0.00586-0.03027 0.017578-0.04395 0.012695-0.01367 0.026367-0.01465 0.014648-0.002 0.02832 0.0068 0.014648 0.0088 0.025391 0.02344 0.011719 0.01367 0.016602 0.03125 0.00586 0.01758 0.00195 0.0332-0.013672 0.0498-0.036133 0.10449-0.021484 0.05469-0.055664 0.10059t-0.082031 0.07617q-0.047852 0.03027-0.1123 0.03027-0.040039 0-0.071289-0.01563-0.03125-0.01465-0.052734-0.04004t-0.033203-0.05957q-0.010742-0.03418-0.010742-0.07227v-0.53418q0-0.02832-0.00488-0.04101-0.00391-0.0127-0.00391-0.02344 0-0.01465 0.015625-0.02344 0.015625-0.0098 0.037109-0.0098 0.049805 0 0.078125 0.02637 0.029297 0.02539 0.029297 0.06152v0.50781z"/>
			<path d="m7.9307 11.92q-0.058594 0-0.10645-0.02051-0.047852-0.02051-0.082031-0.06055-0.033203-0.04101-0.051758-0.10059-0.017578-0.06055-0.017578-0.13965 0-0.11524 0.032227-0.20508 0.032227-0.09082 0.087891-0.15527 0.055664-0.06543 0.12891-0.10352 0.073242-0.03906 0.15527-0.05078v-0.45215q0-0.02148-0.00391-0.03418-0.00293-0.01269-0.00684-0.01953-0.00293-0.0078-0.00684-0.01172-0.00293-0.0049-0.00293-0.0098 0-0.0059 0.00586-0.0098t0.015625-0.0068q0.00977-0.0029 0.020508-0.0039 0.011719-0.002 0.022461-0.002 0.049805 0 0.078125 0.02637 0.029297 0.02539 0.029297 0.06152v1.0742q0 0.0166 0.00391 0.0332 0.00391 0.01563 0.011719 0.0293 0.00879 0.0127 0.021484 0.02148 0.013672 0.0078 0.03125 0.0078 0.030273 0 0.051758-0.02148 0.022461-0.02149 0.038086-0.05371 0.016602-0.03223 0.026367-0.06934 0.010742-0.03809 0.017578-0.07129 0.00586-0.03125 0.019531-0.04492 0.013672-0.01465 0.02832-0.01465 0.011719 0 0.024414 0.0078 0.012695 0.0068 0.022461 0.01855 0.010742 0.01172 0.016602 0.02637 0.00684 0.01465 0.00684 0.0293 0 0.002 0 0.0049t-0.00195 0.0088q-0.012695 0.0498-0.035156 0.10449-0.021484 0.05469-0.056641 0.10059-0.03418 0.0459-0.082031 0.07617-0.047852 0.03027-0.1123 0.03027-0.051758 0-0.09082-0.02148-0.039063-0.02149-0.061523-0.05664-0.033203 0.03418-0.077148 0.05566-0.042969 0.02246-0.10059 0.02246zm0.030273-0.13184q0.039063 0 0.067383-0.02246 0.029297-0.02246 0.048828-0.05566v-0.49414q-0.048828 0.0088-0.094727 0.0332-0.044922 0.02344-0.080078 0.06641-0.03418 0.04297-0.054687 0.10938-0.020508 0.06543-0.020508 0.15918 0 0.05469 0.010742 0.09375 0.011719 0.03809 0.029297 0.0625 0.018555 0.02441 0.042969 0.03613t0.050781 0.01172z"/>
			<path d="m8.9014 11.282q0 0.05566-0.019531 0.11426-0.018555 0.05859-0.056641 0.11133-0.037109 0.05176-0.092773 0.09375-0.054687 0.04101-0.12695 0.0625 0.00977 0.02539 0.025391 0.04883 0.016602 0.02246 0.039063 0.03906t0.051758 0.02637q0.030273 0.0098 0.069336 0.0098 0.058594 0 0.10059-0.02148 0.041992-0.02246 0.070312-0.05859 0.029297-0.03613 0.046875-0.08106 0.017578-0.04492 0.026367-0.09082 0.00684-0.0332 0.027344-0.04395 0.021484-0.01172 0.042969-0.0059 0.022461 0.0059 0.038086 0.02539 0.016602 0.01855 0.013672 0.04492-0.00391 0.03027-0.013672 0.06934-0.00879 0.03906-0.027344 0.0791-0.018555 0.04004-0.047852 0.0791-0.02832 0.03809-0.070312 0.06836t-0.098633 0.04883-0.12988 0.01856q-0.068359 0-0.13281-0.02734-0.063477-0.02637-0.11328-0.07617-0.048828-0.05078-0.079102-0.12402-0.029297-0.07422-0.029297-0.16797 0-0.09473 0.026367-0.17578 0.026367-0.08203 0.069336-0.1416t0.097656-0.09277q0.054687-0.03418 0.1123-0.03418 0.041992 0 0.075195 0.01465 0.03418 0.01465 0.057617 0.04199 0.023437 0.02637 0.035156 0.06348 0.012695 0.03711 0.012695 0.08203zm-0.32227 0.23633q0 0.0088 0.0009766 0.01758 0.0009765 0.0088 0.0009765 0.01855 0.037109-0.01758 0.067383-0.04492 0.030273-0.02734 0.051758-0.0625 0.021484-0.03516 0.033203-0.07617 0.011719-0.04199 0.011719-0.08691 0-0.0332-0.011719-0.05176-0.010742-0.01856-0.030273-0.01856-0.024414 0-0.043945 0.0166-0.018555 0.0166-0.033203 0.04394-0.013672 0.02637-0.023437 0.06055-0.00879 0.0332-0.014648 0.06738-0.00586 0.03418-0.00781 0.06543-0.00195 0.03027-0.0009766 0.05078z"/>
			<path d="m7.2872 13.536q-0.063477 0-0.10547-0.01465-0.041992-0.01367-0.066406-0.03125t-0.03418-0.0332q-0.00977-0.0166-0.00977-0.02148 0-0.01758 0.00781-0.03711 0.00781-0.02051 0.019531-0.03711 0.011719-0.01758 0.025391-0.0293t0.024414-0.01172q0.013672 0 0.022461 0.01758 0.00195 0.002 0.00977 0.0098 0.00781 0.0078 0.021484 0.0166 0.014648 0.0078 0.035156 0.01465 0.021484 0.0068 0.049805 0.0068 0.061523 0 0.10059-0.03711 0.039063-0.03809 0.039063-0.10254 0-0.04492-0.021484-0.08008-0.020508-0.03516-0.054687-0.06543-0.03418-0.03027-0.078125-0.05859-0.043945-0.0293-0.089844-0.06055-0.045898-0.03125-0.089844-0.06738-0.043945-0.03613-0.078125-0.08301-0.03418-0.04687-0.055664-0.10547-0.020508-0.05957-0.020508-0.13574 0-0.06543 0.022461-0.13184t0.061524-0.12598q0.040039-0.06055 0.09375-0.1123 0.053711-0.05273 0.11621-0.09082 0.0625-0.03906 0.12988-0.06055 0.068359-0.02246 0.13672-0.02246 0.058594 0 0.10547 0.01855 0.046875 0.01856 0.079102 0.05273 0.032227 0.0332 0.049805 0.08105 0.017578 0.04687 0.017578 0.10547 0 0.05566-0.019531 0.10938-0.019531 0.05371-0.051758 0.10156-0.032226 0.04785-0.073242 0.08887-0.040039 0.04004-0.083008 0.07031-0.041992 0.0293-0.082031 0.0459t-0.070312 0.0166q-0.026367 0-0.047852-0.01172-0.020508-0.0127-0.035156-0.03027-0.013672-0.01855-0.021484-0.03809-0.00781-0.02051-0.00781-0.03613 0-0.0127 0.00293-0.0166 0.00391-0.0039 0.00977-0.0029 0.00684 0 0.016602 0.0029 0.00977 0.002 0.022461 0.002 0.041016 0 0.09082-0.02832 0.049805-0.02832 0.09375-0.07226 0.043945-0.04395 0.073242-0.09668 0.030273-0.05274 0.030273-0.10254 0-0.05078-0.025391-0.08008-0.024414-0.0293-0.083984-0.0293-0.037109 0-0.081055 0.01465-0.042969 0.01367-0.086914 0.03906t-0.084961 0.06152-0.072266 0.08008q-0.03125 0.04297-0.050781 0.09375-0.018555 0.04981-0.018555 0.10449 0 0.05762 0.020508 0.10352 0.021484 0.04492 0.055664 0.08203 0.035156 0.03711 0.079101 0.06836t0.089844 0.0625q0.045898 0.03027 0.089844 0.06348 0.043945 0.03223 0.078125 0.07227 0.035156 0.03906 0.055664 0.08789 0.021484 0.04785 0.021484 0.11035 0 0.06055-0.023437 0.11523-0.022461 0.05371-0.0625 0.09375t-0.094727 0.06348q-0.054687 0.02344-0.11719 0.02344z"/>
			<path d="m8.4932 13.134q0.00195-0.01172 0.012695-0.01953 0.011719-0.0078 0.026367-0.01074 0.014648-0.0029 0.030273 0 0.016602 0.0029 0.02832 0.01367 0.012695 0.0098 0.017578 0.02832 0.00586 0.01758-0.0009766 0.0459-0.00879 0.04102-0.029297 0.07715-0.019531 0.03516-0.049805 0.0625-0.030273 0.02734-0.071289 0.04297t-0.091797 0.01563q-0.027344 0-0.051758-0.0029-0.023437-0.0029-0.045898-0.01074-0.037109 0.06445-0.095703 0.10352-0.058594 0.04004-0.14453 0.04004-0.076172 0-0.13086-0.03027-0.054687-0.0293-0.09082-0.08008-0.036133-0.05176-0.053711-0.11914-0.016602-0.06738-0.016602-0.14258 0-0.11035 0.025391-0.19727 0.026367-0.08789 0.060547-0.14844 0.03418-0.06152 0.067383-0.09375 0.03418-0.03223 0.050781-0.03223 0.019531 0 0.035156 0.01758 0.016602 0.0166 0.023437 0.04004 0.00781 0.02246 0.00391 0.0459-0.00293 0.02344-0.022461 0.03613-0.011719 0.01856-0.02832 0.04297-0.015625 0.02441-0.030273 0.06152-0.013672 0.03613-0.023437 0.08887-0.00977 0.05273-0.00977 0.12695 0 0.06348 0.010742 0.11035 0.011719 0.04687 0.03125 0.0791 0.020508 0.03125 0.045899 0.04687 0.026367 0.01563 0.055664 0.01563 0.042969 0 0.070312-0.02051 0.02832-0.02148 0.047852-0.05566-0.070312-0.06055-0.10742-0.15332-0.036133-0.09375-0.036133-0.20215 0-0.04687 0.00977-0.08887 0.010742-0.04297 0.030273-0.0752 0.020508-0.03223 0.050781-0.05078 0.030273-0.01953 0.070312-0.01953 0.035156 0 0.066406 0.02539t0.054687 0.07031 0.036133 0.10644q0.013672 0.06152 0.013672 0.13379 0 0.05566-0.00684 0.11035t-0.021484 0.10547q0.010742 0.0039 0.019531 0.0049 0.00977 0 0.020508 0 0.032227 0 0.056641-0.01172 0.025391-0.01172 0.042969-0.03125t0.02832-0.0459 0.015625-0.05566zm-0.3818-0.186q0 0.06738 0.020508 0.12793 0.021484 0.06055 0.055664 0.10547 0.00586-0.04785 0.00586-0.0918 0-0.05078-0.00195-0.09375-0.0009766-0.04394-0.00684-0.07519-0.00488-0.03125-0.014648-0.04883-0.00879-0.01856-0.024414-0.01856-0.03418 0-0.03418 0.09473z"/>
			<path d="m8.8155 13.52q-0.066406 0-0.12891-0.02441-0.0625-0.02441-0.11133-0.07227-0.047852-0.04785-0.077148-0.11816-0.02832-0.07031-0.02832-0.16309 0-0.08594 0.024414-0.16894 0.024414-0.08301 0.067383-0.14746 0.042969-0.06543 0.10254-0.10547 0.060547-0.04004 0.13184-0.04004 0.051758 0 0.087891 0.02148 0.036133 0.02051 0.058594 0.05078 0.022461 0.0293 0.032227 0.06348 0.010742 0.03418 0.010742 0.06055 0 0.01953-0.010742 0.03516-0.00977 0.01563-0.024414 0.02637-0.014648 0.01074-0.032227 0.0166-0.017578 0.0049-0.03125 0.0039-0.013672-0.000977-0.022461-0.0098-0.00781-0.0088-0.00488-0.02637-0.00391-0.0127-0.00781-0.03125-0.00293-0.01855-0.011719-0.03516-0.00781-0.01758-0.022461-0.0293-0.014648-0.0127-0.040039-0.0127-0.027344 0-0.053711 0.02637-0.025391 0.02539-0.045898 0.07031-0.019531 0.04492-0.032227 0.10449-0.011719 0.05957-0.011719 0.12695 0 0.05957 0.014648 0.10547 0.015625 0.0459 0.042969 0.07715t0.064453 0.04785q0.038086 0.01563 0.082031 0.01563 0.058594 0 0.10156-0.02148 0.043945-0.02246 0.074219-0.05859 0.030273-0.03613 0.048828-0.08105t0.027344-0.09082q0.00684-0.0332 0.027344-0.04395 0.021484-0.01172 0.042969-0.0059 0.022461 0.0059 0.038086 0.02539 0.016602 0.01856 0.013672 0.04492-0.00391 0.03027-0.014648 0.06934-0.00977 0.03906-0.029297 0.0791-0.019531 0.04004-0.049805 0.0791-0.029297 0.03809-0.072266 0.06836t-0.10059 0.04883q-0.056641 0.01856-0.12988 0.01856z"/>
			<path d="m9.1954 12.502q-0.024414 0-0.046875-0.0098-0.021484-0.0098-0.038086-0.02637-0.015625-0.0166-0.025391-0.03809-0.00977-0.02246-0.00977-0.04785 0-0.02637 0.00977-0.04883t0.025391-0.03809q0.016602-0.0166 0.038086-0.02539 0.022461-0.0098 0.046875-0.0098 0.026367 0 0.048828 0.0098 0.022461 0.0088 0.038086 0.02539 0.016602 0.01563 0.025391 0.03809 0.00977 0.02246 0.00977 0.04883 0 0.02539-0.00977 0.04785-0.00879 0.02148-0.025391 0.03809-0.015625 0.0166-0.038086 0.02637-0.022461 0.0098-0.048828 0.0098zm0.045898 0.79394q0 0.0068 0.0009765 0.02246 0.0009766 0.01465 0.00586 0.03027 0.00488 0.01563 0.015625 0.02734 0.010742 0.01172 0.030273 0.01172 0.029297 0 0.050781-0.02148 0.022461-0.02149 0.038086-0.05371 0.016602-0.03223 0.027344-0.06934 0.010742-0.03809 0.017578-0.07129 0.00586-0.03027 0.017578-0.04395 0.012695-0.01367 0.026367-0.01465 0.014648-0.002 0.02832 0.0068 0.014648 0.0088 0.025391 0.02344 0.011719 0.01367 0.016602 0.03125 0.00586 0.01758 0.00195 0.0332-0.013672 0.0498-0.036133 0.10449-0.021484 0.05469-0.055664 0.10059t-0.082031 0.07617q-0.047852 0.03027-0.1123 0.03027-0.040039 0-0.071289-0.01563-0.03125-0.01465-0.052734-0.04004t-0.033203-0.05957q-0.010742-0.03418-0.010742-0.07227v-0.53418q0-0.02832-0.00488-0.04101-0.00391-0.0127-0.00391-0.02344 0-0.01465 0.015625-0.02344 0.015625-0.0098 0.037109-0.0098 0.049805 0 0.078125 0.02637 0.029297 0.02539 0.029297 0.06152v0.50781z"/>
			<path d="m10.003 13.388q0.03027 0 0.05176-0.02148 0.02246-0.02149 0.03809-0.05371 0.0166-0.03223 0.02637-0.06934 0.01074-0.03809 0.01758-0.07129 0.0068-0.03125 0.01953-0.04492 0.01367-0.01465 0.0293-0.01465 0.01172 0 0.02344 0.0078 0.01269 0.0068 0.02246 0.01855 0.01074 0.01172 0.0166 0.02637 0.0068 0.01465 0.0068 0.0293 0 0.002 0 0.0049t-0.002 0.0088q-0.01269 0.0498-0.03516 0.10449-0.02149 0.05469-0.05566 0.10059-0.03418 0.0459-0.08301 0.07617-0.04785 0.03027-0.1123 0.03027-0.052734 0-0.091797-0.02246t-0.061523-0.05957q-0.030273 0.03418-0.073242 0.05762-0.041992 0.02441-0.098633 0.02441-0.058594 0-0.10352-0.02344-0.043945-0.02344-0.074219-0.06348-0.030273-0.04102-0.045898-0.0957-0.014648-0.05566-0.014648-0.11914 0-0.125 0.040039-0.22461t0.10645-0.16895q0.066406-0.07031 0.15137-0.10742 0.085937-0.03711 0.17773-0.03711 0.041016 0 0.066406 0.02246 0.025391 0.02246 0.025391 0.06152 0 0.02539-0.00586 0.03613-0.00488 0.0098-0.019531 0.0098-0.013672 0-0.02832-0.002t-0.030273-0.002q-0.056641 0-0.11523 0.02539-0.058594 0.02441-0.10645 0.07617-0.046875 0.05078-0.077148 0.12988-0.030273 0.07813-0.030273 0.18652 0 0.0791 0.030273 0.12207 0.030273 0.04199 0.083008 0.04199 0.041016 0 0.068359-0.03027 0.027344-0.03125 0.043945-0.07324v-0.30859q0-0.01465-0.00195-0.02441-0.0009765-0.0098-0.00293-0.0166-0.0009765-0.0068-0.00195-0.01172-0.0009765-0.0059-0.0009765-0.01074 0-0.01563 0.014648-0.02441 0.015625-0.0098 0.037109-0.0098 0.049805 0 0.079102 0.02637 0.029297 0.02539 0.029297 0.06152v0.33008q0 0.0166 0.00391 0.0332 0.00391 0.01563 0.011719 0.0293 0.00781 0.01269 0.020508 0.02149 0.013672 0.0078 0.03125 0.0078z"/>
			<path d="m10.296 12.872q0.01074-0.02051 0.02051-0.05469 0.01074-0.03516 0.01953-0.07715 0.0098-0.04199 0.01758-0.08789 0.0078-0.0459 0.01367-0.08984 0.0059-0.04395 0.0088-0.08203 0.0039-0.03906 0.0039-0.06641 0-0.09961-0.01465-0.14551-0.01465-0.04687-0.03906-0.04687-0.0078 0-0.01367 0.0078-0.0059 0.0078-0.0098 0.02051-0.0039 0.01172-0.0059 0.02637-0.000976 0.01367-0.000976 0.02539v0.57031zm0.28418 0.30176q0.0059-0.0293 0.01758-0.04199 0.0127-0.01367 0.02637-0.01465 0.01465-0.002 0.0293 0.0068 0.01465 0.0078 0.02539 0.02149 0.01074 0.01367 0.01563 0.03125 0.0059 0.0166 0.002 0.0332-0.01367 0.04004-0.03906 0.09375t-0.06445 0.10156-0.0918 0.08105q-0.05273 0.0332-0.12109 0.0332-0.05762 0-0.10156-0.01953-0.04394-0.01855-0.07422-0.05274-0.0293-0.03516-0.04492-0.08301-0.01465-0.04883-0.01465-0.1084v-0.91016q0-0.05566 0.01367-0.10254 0.01465-0.04785 0.03906-0.08105 0.02539-0.03418 0.05859-0.05273 0.0332-0.01953 0.07031-0.01953 0.04395 0 0.07422 0.0166 0.03027 0.01563 0.0498 0.04199 0.01953 0.02637 0.03027 0.06055 0.01172 0.03418 0.0166 0.07031 0.0049 0.03516 0.0059 0.07031 0.000976 0.03418 0.000976 0.0625 0 0.07324-0.01367 0.1543-0.01367 0.08008-0.03516 0.1582-0.02051 0.07813-0.0459 0.15039-0.02441 0.07129-0.04785 0.12695-0.02246 0.05566-0.04101 0.09082-0.01758 0.03516-0.02441 0.04102v0.11621q0 0.06055 0.02539 0.09961 0.02539 0.03809 0.08105 0.03809 0.03418 0 0.06348-0.02051 0.03027-0.02148 0.05274-0.05273 0.02344-0.03223 0.03906-0.06934 0.01563-0.03809 0.02246-0.07129z"/>
		</g>
		<rect height="6" width="4" y="9" x="1" fill="#607d8b"/>
		<path d="m10 9.25c1-0.25 2-0.25 5-0.25v6c-3 0-4 0-5-0.25z" fill="url(#a)"/>
		<g fill="#fff">
			<path d="m2.9874 12.316q-0.058757 0-0.097627-0.01356-0.03887-0.01265-0.061469-0.02893-0.022599-0.01627-0.031638-0.03073-0.00904-0.01537-0.00904-0.01989 0-0.01627 0.00723-0.03435 0.00723-0.01898 0.018079-0.03435 0.010847-0.01627 0.023503-0.02712 0.012655-0.01085 0.022599-0.01085 0.012655 0 0.020791 0.01627 0.00181 0.0018 0.00904 0.009t0.019887 0.01537q0.013559 0.0072 0.032542 0.01356 0.019887 0.0063 0.046102 0.0063 0.056949 0 0.093107-0.03435 0.036158-0.03525 0.036158-0.09492 0-0.04158-0.019887-0.07412-0.018983-0.03254-0.050621-0.06057-0.031638-0.02802-0.072316-0.05424-0.040678-0.02712-0.083164-0.05604-0.042486-0.02893-0.083164-0.06237-0.040678-0.03345-0.072316-0.07684t-0.051525-0.09763q-0.018983-0.05514-0.018983-0.12565 0-0.06057 0.020791-0.12203 0.020791-0.06147 0.056949-0.11661 0.037062-0.05605 0.08678-0.10396 0.049717-0.04881 0.10757-0.08407 0.057853-0.03616 0.12023-0.05604 0.063277-0.02079 0.12655-0.02079 0.054237 0 0.097627 0.01717t0.07322 0.04881q0.029831 0.03073 0.046102 0.07503 0.016271 0.04339 0.016271 0.09763 0 0.05153-0.018079 0.10124-0.018079 0.04972-0.04791 0.09401t-0.067797 0.08226q-0.037062 0.03706-0.076836 0.06508-0.03887 0.02712-0.075932 0.04249t-0.065085 0.01537q-0.024407 0-0.044294-0.01085-0.018983-0.01175-0.032542-0.02802-0.012655-0.01717-0.019887-0.03525-0.00723-0.01898-0.00723-0.03345 0-0.01175 0.00271-0.01537 0.00362-0.0036 0.00904-0.0027 0.00633 0 0.015367 0.0027 0.00904 0.0018 0.020791 0.0018 0.037966 0 0.084068-0.02622 0.046102-0.02621 0.08678-0.06689t0.067797-0.08949q0.028023-0.04881 0.028023-0.09491 0-0.04701-0.023503-0.07412-0.022599-0.02712-0.07774-0.02712-0.03435 0-0.075028 0.01356-0.039774 0.01266-0.080452 0.03616t-0.078644 0.05695-0.066893 0.07412q-0.028927 0.03977-0.047006 0.08678-0.017175 0.0461-0.017175 0.09672 0 0.05333 0.018983 0.09582 0.019887 0.04158 0.051526 0.07593 0.032542 0.03435 0.07322 0.06328t0.083164 0.05785q0.042486 0.02802 0.083164 0.05876 0.040678 0.02983 0.072316 0.06689 0.032542 0.03616 0.051525 0.08136 0.019887 0.04429 0.019887 0.10215 0 0.05605-0.021695 0.10667-0.020791 0.04972-0.057853 0.08678t-0.087684 0.05876-0.10847 0.0217z"/>
			<path d="m3.1917 13.149q-0.058757 0-0.097627-0.01356-0.03887-0.01266-0.061469-0.02893t-0.031639-0.03073q-0.00904-0.01537-0.00904-0.01989 0-0.01627 0.00723-0.03435 0.00723-0.01898 0.018079-0.03435 0.010848-0.01627 0.023503-0.02712t0.022599-0.01085q0.012655 0 0.020791 0.01627 0.00181 0.0018 0.00904 0.009t0.019887 0.01537q0.013559 0.0072 0.032542 0.01356 0.019887 0.0063 0.046102 0.0063 0.056949 0 0.093107-0.03435 0.036158-0.03525 0.036158-0.09492 0-0.04158-0.019887-0.07413-0.018983-0.03254-0.050622-0.06056-0.031638-0.02802-0.072316-0.05424-0.040678-0.02712-0.083164-0.05604-0.042486-0.02893-0.083164-0.06237-0.040678-0.03345-0.072316-0.07684t-0.051525-0.09763q-0.018983-0.05514-0.018983-0.12565 0-0.06057 0.020791-0.12203 0.020791-0.06147 0.056949-0.11661 0.037062-0.05604 0.08678-0.10396 0.049718-0.04881 0.10757-0.08407 0.057853-0.03616 0.12023-0.05605 0.063277-0.02079 0.12655-0.02079 0.054237 0 0.097627 0.01717t0.07322 0.04881q0.029831 0.03073 0.046102 0.07503 0.016271 0.04339 0.016271 0.09763 0 0.05152-0.018079 0.10124t-0.04791 0.09401-0.067797 0.08226q-0.037062 0.03706-0.076836 0.06508-0.03887 0.02712-0.075932 0.04249t-0.065085 0.01537q-0.024407 0-0.044294-0.01085-0.018983-0.01175-0.032542-0.02802-0.012655-0.01717-0.019887-0.03525-0.00723-0.01898-0.00723-0.03345 0-0.01175 0.00271-0.01537 0.00362-0.0036 0.00904-0.0027 0.00633 0 0.015367 0.0027 0.00904 0.0018 0.020791 0.0018 0.037966 0 0.084068-0.02621t0.08678-0.06689 0.067797-0.08949q0.028023-0.04881 0.028023-0.09492 0-0.04701-0.023503-0.07412-0.022599-0.02712-0.07774-0.02712-0.03435 0-0.075028 0.01356-0.039774 0.01266-0.080452 0.03616t-0.078644 0.05695-0.066893 0.07412q-0.028926 0.03977-0.047006 0.08678-0.017175 0.0461-0.017175 0.09672 0 0.05333 0.018983 0.09582 0.019887 0.04158 0.051525 0.07593 0.032542 0.03435 0.07322 0.06328t0.083164 0.05785q0.042486 0.02802 0.083164 0.05876 0.040678 0.02983 0.072316 0.06689 0.032542 0.03616 0.051525 0.08136 0.019887 0.04429 0.019887 0.10215 0 0.05604-0.021695 0.10667-0.020791 0.04972-0.057853 0.08678t-0.087684 0.05876-0.10847 0.0217z"/>
		</g>
	</g>
</svg>
