<?xml version="1.0" encoding="UTF-8"?>
<svg width="20px" height="20px" viewBox="0 0 20 20" version="1.1" xmlns="http://www.w3.org/2000/svg" xmlns:xlink="http://www.w3.org/1999/xlink">
    <title>Smartcrypt Icon (White)</title>
    <g id="Smartcrypt-Icon-(White)" stroke="none" stroke-width="1" fill="none" fill-rule="evenodd">
        <g id="Smartcrypt-Logo" transform="translate(2.000000, 2.000000)" fill="#FFFFFF">
            <path d="M8,0 L14.9282032,4 L14.9282032,12 L8,16 L1.07179677,12 L1.07179677,4 L8,0 Z M8,1 L1.93782217,4.5 L1.93782217,11.5 L8,15 L14.0621778,11.5 L14.0621778,4.5 L8,1 Z M8,2 L13.1961524,5 L13.1958476,8.786 L11.0300875,7.523 L11.0310889,6.25 L8,4.5 L6.91708752,5.12408752 L5.92008752,5.69908752 L13.1958476,9.943 L13.1961524,11 L8,14 L2.80384758,11 L2.80384758,7.213 L4.96808752,8.476 L4.96891109,9.75 L8,11.5 L9.44291109,10.666 L9.44108752,10.665 L10.0760875,10.2990875 L2.80384758,6.056 L2.80384758,5 L8,2 Z" id="Smartcrypt-Shield"></path>
        </g>
    </g>
</svg>