<svg xmlns="http://www.w3.org/2000/svg" viewBox="0 0 988 777"><g fill="none" fill-rule="nonzero"><path fill="#ED6F24" d="M360 775c-53-4-99-16-144-39A396 396 0 011 389c0-34 0-38 5-66A390 390 0 01404 1a932 932 0 01372 121c127 74 197 165 210 270a271 271 0 01-58 203 500 500 0 01-273 149 1119 1119 0 01-295 31z"/><path fill="#FFF" d="M524 203l2 8c0 4-12 23-36 55l-23 32-2 3h2c20-6 34-8 50-6 27 3 46 12 65 29 7 7 8 8 8 6a68 68 0 0119-39c18-18 41-26 73-28 30-1 52 4 89 19 16 7 17 8 17 16-1 10-8 19-19 27-13 9-20 9-41 1-18-7-29-9-42-9-21 0-30 6-30 18 0 9 6 15 23 24h2l1 1 47 16c38 12 55 26 61 51 2 9 1 31-1 41-7 22-23 40-46 49-37 16-85 14-129-6l-10-4-7 5c-30 19-76 28-112 22-56-11-94-58-94-119l-1-11-9 12-9 12v168l-3 6c-5 10-14 18-26 20-6 1-9 1-16-1-10-2-17-8-22-18l-3-6-1-167-67-91a10301 10301 0 01-87-122l-1-5c0-14 15-26 34-30 24-4 39 4 56 30l27 39 3 4 71 102 102-146c9-14 17-22 26-26 6-3 8-3 16-4 20 0 36 8 43 22zm92 197v3c0 13-10 24-22 28a1548 1548 0 01-134 11h-2l2 5v1c6 16 20 28 35 32 7 2 26 2 36 1 18-3 32-10 47-22 10-8 13-11 17-12h1l1-1h2c8-2 17 0 32 8 12 6 26 11 36 14 16 4 37 3 47-1 15-7 15-25-1-32-6-3-17-7-35-11a191 191 0 01-62-24zm-71-32c-15-22-49-26-73-10-9 7-15 15-17 26l-2 6h3a3257 3257 0 0096-7c0-1-4-11-7-15z"/><path fill="#FFF" d="M447 620c2 0 3-1 3-4v-50c0-3-1-4-3-4s-3 1-3 4v22h-34v-22c0-3-1-4-3-4s-4 1-4 4v50c0 3 2 4 4 4s3-1 3-4v-23h34v23c0 3 1 4 3 4zm55-1c2 0 3-1 3-3 0-1-1-2-3-2h-27v-21h25c2 0 3-1 3-2 0-2-1-3-3-3h-25v-20h27c2 0 3-1 3-2 0-2-1-3-3-3h-30c-2 0-4 1-4 3v50c0 2 2 3 4 3h30zm71 1l2-2v-3l-22-50-2-2-2-1c-2 0-3 1-4 3l-22 50v3c1 1 1 2 3 2l3-3 5-12h30l5 12 1 2 3 1zm-12-21h-24l12-29 12 29zm64 20c2 0 3-1 3-3s-1-3-3-3h-26v-47c0-2-1-4-4-4-2 0-3 2-3 4v50c0 2 1 3 4 3h29zm31 1c2 0 3-1 3-4v-48h18c2 0 3 0 3-2s-1-3-3-3h-42c-2 0-3 1-3 3s1 2 3 2h18v48c0 3 1 4 3 4zm80 0c2 0 4-1 4-4v-50c0-3-2-4-4-4s-3 1-3 4v22h-34v-22c0-3-1-4-3-4s-3 1-3 4v50c0 3 1 4 3 4s3-1 3-4v-23h34v23c0 3 1 4 3 4z"/></g></svg>